<svg width="17" height="16" viewBox="0 0 17 16" fill="none" xmlns="http://www.w3.org/2000/svg">
<path d="M3.70728 11.3333H3.04061C2.68699 11.3333 2.34785 11.1929 2.0978 10.9428C1.84775 10.6928 1.70728 10.3536 1.70728 10V3.33333C1.70728 2.97971 1.84775 2.64057 2.0978 2.39052C2.34785 2.14048 2.68699 2 3.04061 2H13.7073C14.0609 2 14.4 2.14048 14.6501 2.39052C14.9001 2.64057 15.0406 2.97971 15.0406 3.33333V10C15.0406 10.3536 14.9001 10.6928 14.6501 10.9428C14.4 11.1929 14.0609 11.3333 13.7073 11.3333H13.0406" stroke="currentColor" stroke-width="1.33397" stroke-linecap="round" stroke-linejoin="round"/>
<path d="M8.3741 10L11.7074 14H5.04077L8.3741 10Z" stroke="currentColor" stroke-width="1.33397" stroke-linecap="round" stroke-linejoin="round"/>
</svg>
