<svg width="17" height="16" viewBox="0 0 17 16" fill="none" xmlns="http://www.w3.org/2000/svg">
<g clip-path="url(#clip0_481_1645)">
<path d="M7.29507 2.57347L1.64841 12.0001C1.53198 12.2018 1.47038 12.4303 1.46973 12.6632C1.46908 12.896 1.5294 13.1249 1.64469 13.3272C1.75998 13.5294 1.92622 13.698 2.12688 13.816C2.32753 13.9341 2.55561 13.9976 2.78841 14.0001H14.0817C14.3145 13.9976 14.5426 13.9341 14.7433 13.816C14.9439 13.698 15.1102 13.5294 15.2255 13.3272C15.3407 13.1249 15.4011 12.896 15.4004 12.6632C15.3998 12.4303 15.3382 12.2018 15.2217 12.0001L9.57507 2.57347C9.45623 2.37754 9.28889 2.21555 9.0892 2.10313C8.88952 1.9907 8.66423 1.93164 8.43507 1.93164C8.20592 1.93164 7.98063 1.9907 7.78094 2.10313C7.58126 2.21555 7.41392 2.37754 7.29507 2.57347Z" stroke="#141413" stroke-width="1.33397" stroke-linecap="round" stroke-linejoin="round"/>
<path d="M8.43506 6V8.66667" stroke="#141413" stroke-width="1.33397" stroke-linecap="round" stroke-linejoin="round"/>
<path d="M8.43506 11.3333H8.44173" stroke="#141413" stroke-width="1.33397" stroke-linecap="round" stroke-linejoin="round"/>
</g>
<defs>
<clipPath id="clip0_481_1645">
<rect width="16" height="16" fill="white" transform="translate(0.435059)"/>
</clipPath>
</defs>
</svg>
