<svg width="17" height="17" viewBox="0 0 17 17" fill="none" xmlns="http://www.w3.org/2000/svg">
<g clip-path="url(#clip0_484_2740)">
<path d="M8.49601 11.3536C9.96877 11.3536 11.1627 10.1597 11.1627 8.68693C11.1627 7.21417 9.96877 6.02026 8.49601 6.02026C7.02325 6.02026 5.82935 7.21417 5.82935 8.68693C5.82935 10.1597 7.02325 11.3536 8.49601 11.3536Z" stroke="#141413" stroke-width="1.33397" stroke-linecap="round" stroke-linejoin="round"/>
<path d="M11.1627 6.02034V9.35367C11.1627 9.8841 11.3734 10.3928 11.7485 10.7679C12.1235 11.143 12.6323 11.3537 13.1627 11.3537C13.6931 11.3537 14.2018 11.143 14.5769 10.7679C14.952 10.3928 15.1627 9.8841 15.1627 9.35367V8.687C15.1626 7.18236 14.6535 5.72199 13.7182 4.54336C12.7829 3.36473 11.4764 2.53716 10.0111 2.1952C8.54584 1.85325 7.00797 2.01703 5.64758 2.65992C4.28719 3.3028 3.18428 4.38698 2.51819 5.73615C1.8521 7.08533 1.662 8.62016 1.9788 10.0911C2.2956 11.562 3.10067 12.8825 4.26311 13.8379C5.42554 14.7932 6.87697 15.3272 8.3814 15.3531C9.88582 15.379 11.3548 14.8952 12.5494 13.9803" stroke="#141413" stroke-width="1.33397" stroke-linecap="round" stroke-linejoin="round"/>
</g>
<defs>
<clipPath id="clip0_484_2740">
<rect width="16" height="16" fill="white" transform="translate(0.496094 0.687012)"/>
</clipPath>
</defs>
</svg>
