<svg width="17" height="17" viewBox="0 0 17 17" fill="none" xmlns="http://www.w3.org/2000/svg">
<g clip-path="url(#clip0_481_1732)">
<path d="M4.26469 12.687H2.93136C2.57773 12.687 2.2386 12.5465 1.98855 12.2965C1.7385 12.0464 1.59802 11.7073 1.59802 11.3537V6.02035C1.59802 5.66672 1.7385 5.32758 1.98855 5.07754C2.2386 4.82749 2.57773 4.68701 2.93136 4.68701H5.05802M10.9314 4.68701H12.2647C12.6183 4.68701 12.9574 4.82749 13.2075 5.07754C13.4575 5.32758 13.598 5.66672 13.598 6.02035V11.3537C13.598 11.7073 13.4575 12.0464 13.2075 12.2965C12.9574 12.5465 12.6183 12.687 12.2647 12.687H10.138" stroke="currentColor" stroke-width="1.33397" stroke-linecap="round" stroke-linejoin="round"/>
<path d="M16.2646 9.35423V8.02026" stroke="currentColor" stroke-width="1.33397" stroke-linecap="round" stroke-linejoin="round"/>
<path d="M8.26469 4.68701L5.59802 8.68701H9.59802L6.93136 12.687" stroke="currentColor" stroke-width="1.33397" stroke-linecap="round" stroke-linejoin="round"/>
</g>
<defs>
<clipPath id="clip0_481_1732">
<rect width="16" height="16" fill="white" transform="translate(0.931274 0.687012)"/>
</clipPath>
</defs>
</svg>
