<svg width="17" height="17" viewBox="0 0 17 17" fill="none" xmlns="http://www.w3.org/2000/svg">
<g clip-path="url(#clip0_484_2741)">
<path d="M12.6184 6.02026C12.6184 4.9594 12.197 3.94198 11.4468 3.19184C10.6967 2.44169 9.67927 2.02026 8.61841 2.02026C7.55754 2.02026 6.54013 2.44169 5.78998 3.19184C5.03984 3.94198 4.61841 4.9594 4.61841 6.02026C4.61841 10.6869 2.61841 12.0203 2.61841 12.0203H14.6184C14.6184 12.0203 12.6184 10.6869 12.6184 6.02026Z" stroke="currentColor" stroke-width="1.33397" stroke-linecap="round" stroke-linejoin="round"/>
<path d="M9.77175 14.687C9.65455 14.8891 9.48632 15.0568 9.28391 15.1734C9.08149 15.29 8.85201 15.3513 8.61842 15.3513C8.38483 15.3513 8.15535 15.29 7.95294 15.1734C7.75053 15.0568 7.58229 14.8891 7.46509 14.687" stroke="currentColor" stroke-width="1.33397" stroke-linecap="round" stroke-linejoin="round"/>
</g>
<defs>
<clipPath id="clip0_484_2741">
<rect width="16" height="16" fill="white" transform="translate(0.618408 0.687012)"/>
</clipPath>
</defs>
</svg>
