<svg width="16" height="17" viewBox="0 0 16 17" fill="none" xmlns="http://www.w3.org/2000/svg">
<path d="M4 3.04077H9.33333C10.0406 3.04077 10.7189 3.32172 11.219 3.82182C11.719 4.32192 12 5.00019 12 5.70744C12 6.41468 11.719 7.09296 11.219 7.59306C10.7189 8.09315 10.0406 8.3741 9.33333 8.3741H4V3.04077Z" stroke="currentColor" stroke-width="1.33397" stroke-linecap="round" stroke-linejoin="round"/>
<path d="M4 8.37402H10C10.7072 8.37402 11.3855 8.65497 11.8856 9.15507C12.3857 9.65517 12.6667 10.3334 12.6667 11.0407C12.6667 11.7479 12.3857 12.4262 11.8856 12.9263C11.3855 13.4264 10.7072 13.7074 10 13.7074H4V8.37402Z" stroke="currentColor" stroke-width="1.33397" stroke-linecap="round" stroke-linejoin="round"/>
</svg>
