<svg width="17" height="17" viewBox="0 0 17 17" fill="none" xmlns="http://www.w3.org/2000/svg">
<g clip-path="url(#clip0_481_1778)">
<path d="M1.39429 2.37402H5.39429C6.10153 2.37402 6.77981 2.65497 7.27991 3.15507C7.78 3.65517 8.06095 4.33345 8.06095 5.04069V14.374C8.06095 13.8436 7.85024 13.3349 7.47517 12.9598C7.1001 12.5847 6.59139 12.374 6.06095 12.374H1.39429V2.37402Z" stroke="currentColor" stroke-width="1.33397" stroke-linecap="round" stroke-linejoin="round"/>
<path d="M14.7277 2.37402H10.7277C10.0205 2.37402 9.34218 2.65497 8.84208 3.15507C8.34199 3.65517 8.06104 4.33345 8.06104 5.04069V14.374C8.06104 13.8436 8.27175 13.3349 8.64682 12.9598C9.02189 12.5847 9.5306 12.374 10.061 12.374H14.7277V2.37402Z" stroke="currentColor" stroke-width="1.33397" stroke-linecap="round" stroke-linejoin="round"/>
</g>
<defs>
<clipPath id="clip0_481_1778">
<rect width="16" height="16" fill="white" transform="translate(0.0610352 0.374023)"/>
</clipPath>
</defs>
</svg>
