<svg width="17" height="17" viewBox="0 0 17 17" fill="none" xmlns="http://www.w3.org/2000/svg">
<path d="M14.748 11.0407V5.70737C14.7478 5.47356 14.6861 5.24391 14.5691 5.04148C14.4521 4.83905 14.2839 4.67095 14.0814 4.55404L9.41471 1.88737C9.21202 1.77035 8.9821 1.70874 8.74805 1.70874C8.514 1.70874 8.28407 1.77035 8.08138 1.88737L3.41471 4.55404C3.21222 4.67095 3.04403 4.83905 2.92702 5.04148C2.81001 5.24391 2.74829 5.47356 2.74805 5.70737V11.0407C2.74829 11.2745 2.81001 11.5042 2.92702 11.7066C3.04403 11.909 3.21222 12.0771 3.41471 12.194L8.08138 14.8607C8.28407 14.9777 8.514 15.0393 8.74805 15.0393C8.9821 15.0393 9.21202 14.9777 9.41471 14.8607L14.0814 12.194C14.2839 12.0771 14.4521 11.909 14.5691 11.7066C14.6861 11.5042 14.7478 11.2745 14.748 11.0407Z" stroke="currentColor" stroke-width="1.33397" stroke-linecap="round" stroke-linejoin="round"/>
<path d="M2.92798 5.01392L8.74798 8.38058L14.568 5.01392" stroke="currentColor" stroke-width="1.33397" stroke-linecap="round" stroke-linejoin="round"/>
<path d="M8.74805 15.094V8.37402" stroke="currentColor" stroke-width="1.33397" stroke-linecap="round" stroke-linejoin="round"/>
</svg>
