<svg width="17" height="17" viewBox="0 0 17 17" fill="none" xmlns="http://www.w3.org/2000/svg">
<path d="M13.7683 5.04077H3.10164C2.36526 5.04077 1.76831 5.63773 1.76831 6.3741V13.0408C1.76831 13.7772 2.36526 14.3741 3.10164 14.3741H13.7683C14.5047 14.3741 15.1016 13.7772 15.1016 13.0408V6.3741C15.1016 5.63773 14.5047 5.04077 13.7683 5.04077Z" stroke="currentColor" stroke-width="1.33397" stroke-linecap="round" stroke-linejoin="round"/>
<path d="M11.1016 14.374V3.70736C11.1016 3.35373 10.9612 3.0146 10.7111 2.76455C10.4611 2.5145 10.1219 2.37402 9.76831 2.37402H7.10164C6.74802 2.37402 6.40888 2.5145 6.15884 2.76455C5.90879 3.0146 5.76831 3.35373 5.76831 3.70736V14.374" stroke="currentColor" stroke-width="1.33397" stroke-linecap="round" stroke-linejoin="round"/>
</svg>
