<svg width="17" height="17" viewBox="0 0 17 17" fill="none" xmlns="http://www.w3.org/2000/svg">
<g clip-path="url(#clip0_481_1781)">
<path d="M1.16284 1.04077L15.8295 15.7074" stroke="#141413" stroke-width="1.33397" stroke-linecap="round" stroke-linejoin="round"/>
<path d="M14.4962 14.374H2.49618C2.14255 14.374 1.80341 14.2335 1.55337 13.9835C1.30332 13.7335 1.16284 13.3943 1.16284 13.0407V5.70736C1.16284 5.35373 1.30332 5.0146 1.55337 4.76455C1.80341 4.5145 2.14255 4.37402 2.49618 4.37402H4.49618M6.49618 2.37402H10.4962L11.8295 4.37402H14.4962C14.8498 4.37402 15.1889 4.5145 15.439 4.76455C15.689 5.0146 15.8295 5.35373 15.8295 5.70736V11.934M10.6828 10.5607C10.4616 10.8841 10.1718 11.1547 9.83404 11.3533C9.4963 11.552 9.11895 11.6738 8.72881 11.71C8.33867 11.7463 7.94533 11.6961 7.57678 11.5631C7.20823 11.4301 6.87351 11.2175 6.59646 10.9404C6.3194 10.6634 6.1068 10.3286 5.97378 9.96009C5.84076 9.59154 5.79059 9.1982 5.82685 8.80806C5.8631 8.41792 5.98488 8.04056 6.18353 7.70283C6.38218 7.3651 6.65281 7.07529 6.97618 6.85402" stroke="#141413" stroke-width="1.33397" stroke-linecap="round" stroke-linejoin="round"/>
</g>
<defs>
<clipPath id="clip0_481_1781">
<rect width="16" height="16" fill="white" transform="translate(0.496094 0.374023)"/>
</clipPath>
</defs>
</svg>
