<svg width="17" height="17" viewBox="0 0 17 17" fill="none" xmlns="http://www.w3.org/2000/svg">
<g clip-path="url(#clip0_484_2745)">
<path d="M16.1425 13.0407C16.1425 13.3943 16.002 13.7335 15.752 13.9835C15.5019 14.2335 15.1628 14.374 14.8092 14.374H2.80916C2.45554 14.374 2.1164 14.2335 1.86635 13.9835C1.61631 13.7335 1.47583 13.3943 1.47583 13.0407V5.70736C1.47583 5.35373 1.61631 5.0146 1.86635 4.76455C2.1164 4.5145 2.45554 4.37402 2.80916 4.37402H5.47583L6.80916 2.37402H10.8092L12.1425 4.37402H14.8092C15.1628 4.37402 15.5019 4.5145 15.752 4.76455C16.002 5.0146 16.1425 5.35373 16.1425 5.70736V13.0407Z" stroke="currentColor" stroke-width="1.33397" stroke-linecap="round" stroke-linejoin="round"/>
<path d="M8.809 11.7074C10.2818 11.7074 11.4757 10.5134 11.4757 9.04069C11.4757 7.56793 10.2818 6.37402 8.809 6.37402C7.33624 6.37402 6.14233 7.56793 6.14233 9.04069C6.14233 10.5134 7.33624 11.7074 8.809 11.7074Z" stroke="currentColor" stroke-width="1.33397" stroke-linecap="round" stroke-linejoin="round"/>
</g>
<defs>
<clipPath id="clip0_484_2745">
<rect width="16" height="16" fill="white" transform="translate(0.809082 0.374023)"/>
</clipPath>
</defs>
</svg>
