<svg width="17" height="17" viewBox="0 0 17 17" fill="none" xmlns="http://www.w3.org/2000/svg">
<g clip-path="url(#clip0_484_2746)">
<path d="M1.51636 11.1074C2.15695 11.2381 2.74499 11.5542 3.20728 12.0165C3.66957 12.4788 3.98571 13.0668 4.11636 13.7074M1.51636 8.40744C2.87022 8.55801 4.13254 9.1648 5.09577 10.128C6.05899 11.0913 6.66578 12.3536 6.81636 13.7074M1.51636 5.70744V4.3741C1.51636 4.02048 1.65683 3.68134 1.90688 3.4313C2.15693 3.18125 2.49607 3.04077 2.84969 3.04077H13.5164C13.87 3.04077 14.2091 3.18125 14.4592 3.4313C14.7092 3.68134 14.8497 4.02048 14.8497 4.3741V12.3741C14.8497 12.7277 14.7092 13.0669 14.4592 13.3169C14.2091 13.567 13.87 13.7074 13.5164 13.7074H9.51636" stroke="#141413" stroke-width="1.33397" stroke-linecap="round" stroke-linejoin="round"/>
<path d="M1.51636 13.7073H1.52303" stroke="#141413" stroke-width="1.33397" stroke-linecap="round" stroke-linejoin="round"/>
</g>
<defs>
<clipPath id="clip0_484_2746">
<rect width="16" height="16" fill="white" transform="translate(0.183105 0.374023)"/>
</clipPath>
</defs>
</svg>
