<svg width="17" height="17" viewBox="0 0 17 17" fill="none" xmlns="http://www.w3.org/2000/svg">
<g clip-path="url(#clip0_481_1857)">
<path d="M8.74797 14.7276C12.4299 14.7276 15.4146 11.7429 15.4146 8.06095C15.4146 4.37906 12.4299 1.39429 8.74797 1.39429C5.06607 1.39429 2.0813 4.37906 2.0813 8.06095C2.0813 11.7429 5.06607 14.7276 8.74797 14.7276Z" stroke="currentColor" stroke-width="1.33397" stroke-linecap="round" stroke-linejoin="round"/>
<path d="M8.74797 10.7276C10.2207 10.7276 11.4146 9.53371 11.4146 8.06095C11.4146 6.58819 10.2207 5.39429 8.74797 5.39429C7.27521 5.39429 6.0813 6.58819 6.0813 8.06095C6.0813 9.53371 7.27521 10.7276 8.74797 10.7276Z" stroke="currentColor" stroke-width="1.33397" stroke-linecap="round" stroke-linejoin="round"/>
<path d="M14.8614 5.39429H8.74805" stroke="currentColor" stroke-width="1.33397" stroke-linecap="round" stroke-linejoin="round"/>
<path d="M3.38135 4.10107L6.44135 9.39441" stroke="currentColor" stroke-width="1.33397" stroke-linecap="round" stroke-linejoin="round"/>
<path d="M8.00146 14.6876L11.0548 9.39429" stroke="currentColor" stroke-width="1.33397" stroke-linecap="round" stroke-linejoin="round"/>
</g>
<defs>
<clipPath id="clip0_481_1857">
<rect width="16" height="16" fill="white" transform="translate(0.748047 0.0610352)"/>
</clipPath>
</defs>
</svg>
