<svg width="17" height="17" viewBox="0 0 17 17" fill="none" xmlns="http://www.w3.org/2000/svg">
<g clip-path="url(#clip0_484_2755)">
<path d="M10.7888 2.72778H12.1222C12.4758 2.72778 12.8149 2.86826 13.065 3.11831C13.315 3.36836 13.4555 3.70749 13.4555 4.06112V13.3945C13.4555 13.7481 13.315 14.0872 13.065 14.3373C12.8149 14.5873 12.4758 14.7278 12.1222 14.7278H4.12215C3.76853 14.7278 3.42939 14.5873 3.17934 14.3373C2.92929 14.0872 2.78882 13.7481 2.78882 13.3945V4.06112C2.78882 3.70749 2.92929 3.36836 3.17934 3.11831C3.42939 2.86826 3.76853 2.72778 4.12215 2.72778H5.45549" stroke="currentColor" stroke-width="1.33397" stroke-linecap="round" stroke-linejoin="round"/>
<path d="M10.122 1.39429H6.12199C5.7538 1.39429 5.45532 1.69276 5.45532 2.06095V3.39429C5.45532 3.76248 5.7538 4.06095 6.12199 4.06095H10.122C10.4902 4.06095 10.7887 3.76248 10.7887 3.39429V2.06095C10.7887 1.69276 10.4902 1.39429 10.122 1.39429Z" stroke="currentColor" stroke-width="1.33397" stroke-linecap="round" stroke-linejoin="round"/>
</g>
<defs>
<clipPath id="clip0_484_2755">
<rect width="16" height="16" fill="white" transform="translate(0.12207 0.0610352)"/>
</clipPath>
</defs>
</svg>
