<svg width="17" height="17" viewBox="0 0 17 17" fill="none" xmlns="http://www.w3.org/2000/svg">
<g clip-path="url(#clip0_481_1866)">
<path d="M12.496 6.72778H11.656C11.4066 5.76178 10.8912 4.88511 10.1684 4.19738C9.44566 3.50965 8.54448 3.03844 7.56729 2.8373C6.59009 2.63616 5.57607 2.71314 4.64044 3.05951C3.70481 3.40588 2.8851 4.00774 2.27444 4.7967C1.66378 5.58567 1.28666 6.5301 1.18594 7.52269C1.08522 8.51527 1.26493 9.51621 1.70466 10.4118C2.14438 11.3073 2.82648 12.0616 3.67346 12.5888C4.52044 13.1161 5.49832 13.3952 6.496 13.3945H12.496C13.3801 13.3945 14.2279 13.0433 14.853 12.4181C15.4781 11.793 15.8293 10.9452 15.8293 10.0611C15.8293 9.17706 15.4781 8.32922 14.853 7.70409C14.2279 7.07897 13.3801 6.72778 12.496 6.72778Z" stroke="currentColor" stroke-width="1.33397" stroke-linecap="round" stroke-linejoin="round"/>
</g>
<defs>
<clipPath id="clip0_481_1866">
<rect width="16" height="16" fill="white" transform="translate(0.496094 0.0610352)"/>
</clipPath>
</defs>
</svg>
