<svg width="17" height="17" viewBox="0 0 17 17" fill="none" xmlns="http://www.w3.org/2000/svg">
<g clip-path="url(#clip0_481_1846)">
<path d="M13.5368 11.3278C14.3469 11.1633 15.067 10.7037 15.5573 10.0381C16.0476 9.37259 16.273 8.54861 16.19 7.72616C16.1069 6.90371 15.7212 6.14146 15.1077 5.5874C14.4942 5.03334 13.6968 4.72699 12.8702 4.72782H12.0302C11.8093 3.8727 11.3795 3.08581 10.7794 2.43781C10.1793 1.78981 9.42771 1.30097 8.59204 1.0152C7.75636 0.729417 6.8628 0.655641 5.99158 0.800492C5.12035 0.945343 4.29873 1.30428 3.60049 1.84509C2.90225 2.3859 2.34924 3.09164 1.99111 3.89896C1.63298 4.70628 1.48095 5.5899 1.54866 6.47048C1.61636 7.35107 1.9017 8.20106 2.37904 8.94413C2.85637 9.68721 3.51078 10.3001 4.28349 10.7278" stroke="#141413" stroke-width="1.33397" stroke-linecap="round" stroke-linejoin="round"/>
<path d="M9.53678 7.39429L6.87012 11.3943H10.8701L8.20345 15.3943" stroke="#141413" stroke-width="1.33397" stroke-linecap="round" stroke-linejoin="round"/>
</g>
<defs>
<clipPath id="clip0_481_1846">
<rect width="16" height="16" fill="white" transform="translate(0.870117 0.0610352)"/>
</clipPath>
</defs>
</svg>
