<svg width="17" height="17" viewBox="0 0 17 17" fill="none" xmlns="http://www.w3.org/2000/svg">
<g clip-path="url(#clip0_481_1881)">
<path d="M10.9109 8.72778V14.0611" stroke="#141413" stroke-width="1.33397" stroke-linecap="round" stroke-linejoin="round"/>
<path d="M5.57764 8.72778V14.0611" stroke="#141413" stroke-width="1.33397" stroke-linecap="round" stroke-linejoin="round"/>
<path d="M8.24426 10.061V15.3944" stroke="#141413" stroke-width="1.33397" stroke-linecap="round" stroke-linejoin="round"/>
<path d="M13.5776 11.1143C14.2784 10.8073 14.8523 10.2686 15.203 9.58862C15.5536 8.90861 15.6597 8.12867 15.5033 7.37972C15.347 6.63077 14.9377 5.9584 14.3443 5.47548C13.7508 4.99256 13.0093 4.72849 12.2442 4.72759H11.4042C11.1929 3.90927 10.7901 3.15289 10.2291 2.52079C9.66809 1.88869 8.96487 1.39898 8.17742 1.09201C7.38998 0.785037 6.54085 0.669603 5.70003 0.755221C4.85922 0.840839 4.05078 1.12506 3.34137 1.58445C2.63196 2.04384 2.04189 2.66525 1.61978 3.39746C1.19767 4.12967 0.955626 4.95171 0.913585 5.79583C0.871545 6.63994 1.03072 7.48197 1.37798 8.2525C1.72524 9.02302 2.25066 9.69999 2.91091 10.2276" stroke="#141413" stroke-width="1.33397" stroke-linecap="round" stroke-linejoin="round"/>
</g>
<defs>
<clipPath id="clip0_481_1881">
<rect width="16" height="16" fill="white" transform="translate(0.244263 0.0610352)"/>
</clipPath>
</defs>
</svg>
