<svg width="17" height="17" viewBox="0 0 17 17" fill="none" xmlns="http://www.w3.org/2000/svg">
<g clip-path="url(#clip0_481_1824)">
<path d="M15.6305 11.3611C15.8453 10.854 15.9311 10.3015 15.8802 9.75315C15.8294 9.20476 15.6434 8.67753 15.339 8.21858C15.0345 7.75962 14.6211 7.38325 14.1357 7.1231C13.6503 6.86295 13.1079 6.72713 12.5572 6.72778H11.7172C11.4451 5.65611 10.8466 4.6955 10.0046 3.97889C9.16254 3.26227 8.1186 2.82507 7.0172 2.72778M3.89054 3.39445C2.84926 3.97021 2.03041 4.87764 1.56426 5.97239C1.09812 7.06714 1.01144 8.28633 1.31802 9.43601C1.6246 10.5857 2.30684 11.5998 3.25619 12.3171C4.20555 13.0344 5.3675 13.4136 6.5572 13.3945H12.5572C12.9437 13.394 13.3272 13.3263 13.6905 13.1945" stroke="currentColor" stroke-width="1.33397" stroke-linecap="round" stroke-linejoin="round"/>
<path d="M1.22388 0.727783L15.8905 15.3945" stroke="currentColor" stroke-width="1.33397" stroke-linecap="round" stroke-linejoin="round"/>
</g>
<defs>
<clipPath id="clip0_481_1824">
<rect width="16" height="16" fill="white" transform="translate(0.557129 0.0610352)"/>
</clipPath>
</defs>
</svg>
