<svg width="17" height="17" viewBox="0 0 17 17" fill="none" xmlns="http://www.w3.org/2000/svg">
<g clip-path="url(#clip0_481_1849)">
<path d="M14.2646 11.781C14.9654 11.4741 15.5393 10.9354 15.89 10.2554C16.2406 9.57535 16.3467 8.79541 16.1903 8.04646C16.034 7.29751 15.6247 6.62515 15.0313 6.14223C14.4379 5.65931 13.6964 5.39524 12.9313 5.39434H12.0913C11.8799 4.57602 11.4772 3.81964 10.9161 3.18754C10.3551 2.55544 9.65188 2.06572 8.86443 1.75875C8.07699 1.45178 7.22786 1.33635 6.38704 1.42197C5.54623 1.50759 4.7378 1.7918 4.02839 2.2512C3.31898 2.71059 2.7289 3.332 2.30679 4.0642C1.88469 4.79641 1.64264 5.61846 1.6006 6.46257C1.55856 7.30669 1.71773 8.14872 2.06499 8.91924C2.41226 9.68977 2.93767 10.3667 3.59792 10.8943" stroke="#141413" stroke-width="1.33397" stroke-linecap="round" stroke-linejoin="round"/>
<path d="M6.26465 10.7278H6.27132" stroke="#141413" stroke-width="1.33397" stroke-linecap="round" stroke-linejoin="round"/>
<path d="M6.26465 13.3943H6.27132" stroke="#141413" stroke-width="1.33397" stroke-linecap="round" stroke-linejoin="round"/>
<path d="M8.93127 12.061H8.93794" stroke="#141413" stroke-width="1.33397" stroke-linecap="round" stroke-linejoin="round"/>
<path d="M8.93127 14.7278H8.93794" stroke="#141413" stroke-width="1.33397" stroke-linecap="round" stroke-linejoin="round"/>
<path d="M11.598 10.7278H11.6047" stroke="#141413" stroke-width="1.33397" stroke-linecap="round" stroke-linejoin="round"/>
<path d="M11.598 13.3943H11.6047" stroke="#141413" stroke-width="1.33397" stroke-linecap="round" stroke-linejoin="round"/>
</g>
<defs>
<clipPath id="clip0_481_1849">
<rect width="16" height="16" fill="white" transform="translate(0.931274 0.0610352)"/>
</clipPath>
</defs>
</svg>
