<svg width="17" height="17" viewBox="0 0 17 17" fill="none" xmlns="http://www.w3.org/2000/svg">
<path d="M8.68701 2.74805H13.3537C13.7073 2.74805 14.0464 2.88852 14.2965 3.13857C14.5465 3.38862 14.687 3.72776 14.687 4.08138V13.4147C14.687 13.7683 14.5465 14.1075 14.2965 14.3575C14.0464 14.6076 13.7073 14.748 13.3537 14.748H8.68701M8.68701 2.74805H4.02035C3.66672 2.74805 3.32758 2.88852 3.07754 3.13857C2.82749 3.38862 2.68701 3.72776 2.68701 4.08138V13.4147C2.68701 13.7683 2.82749 14.1075 3.07754 14.3575C3.32758 14.6076 3.66672 14.748 4.02035 14.748H8.68701M8.68701 2.74805V14.748" stroke="currentColor" stroke-width="1.33397" stroke-linecap="round" stroke-linejoin="round"/>
</svg>
