<svg width="17" height="17" viewBox="0 0 17 17" fill="none" xmlns="http://www.w3.org/2000/svg">
<path d="M12.374 2.74805C11.8436 2.74805 11.3349 2.95876 10.9598 3.33383C10.5847 3.70891 10.374 4.21761 10.374 4.74805V12.748C10.374 13.2785 10.5847 13.7872 10.9598 14.1623C11.3349 14.5373 11.8436 14.748 12.374 14.748C12.9045 14.748 13.4132 14.5373 13.7882 14.1623C14.1633 13.7872 14.374 13.2785 14.374 12.748C14.374 12.2176 14.1633 11.7089 13.7882 11.3338C13.4132 10.9588 12.9045 10.748 12.374 10.748H4.37402C3.84359 10.748 3.33488 10.9588 2.95981 11.3338C2.58474 11.7089 2.37402 12.2176 2.37402 12.748C2.37402 13.2785 2.58474 13.7872 2.95981 14.1623C3.33488 14.5373 3.84359 14.748 4.37402 14.748C4.90446 14.748 5.41316 14.5373 5.78824 14.1623C6.16331 13.7872 6.37402 13.2785 6.37402 12.748V4.74805C6.37402 4.21761 6.16331 3.70891 5.78824 3.33383C5.41316 2.95876 4.90446 2.74805 4.37402 2.74805C3.84359 2.74805 3.33488 2.95876 2.95981 3.33383C2.58474 3.70891 2.37402 4.21761 2.37402 4.74805C2.37402 5.27848 2.58474 5.78719 2.95981 6.16226C3.33488 6.53733 3.84359 6.74805 4.37402 6.74805H12.374C12.9045 6.74805 13.4132 6.53733 13.7882 6.16226C14.1633 5.78719 14.374 5.27848 14.374 4.74805C14.374 4.21761 14.1633 3.70891 13.7882 3.33383C13.4132 2.95876 12.9045 2.74805 12.374 2.74805Z" stroke="#141413" stroke-width="1.33397" stroke-linecap="round" stroke-linejoin="round"/>
</svg>
