<svg width="17" height="17" viewBox="0 0 17 17" fill="none" xmlns="http://www.w3.org/2000/svg">
<g clip-path="url(#clip0_484_2757)">
<path d="M14.0814 6.74805H8.08138C7.345 6.74805 6.74805 7.345 6.74805 8.08138V14.0814C6.74805 14.8178 7.345 15.4147 8.08138 15.4147H14.0814C14.8178 15.4147 15.4147 14.8178 15.4147 14.0814V8.08138C15.4147 7.345 14.8178 6.74805 14.0814 6.74805Z" stroke="currentColor" stroke-width="1.33397" stroke-linecap="round" stroke-linejoin="round"/>
<path d="M4.0813 10.748H3.41463C3.06101 10.748 2.72187 10.6075 2.47182 10.3574C2.22177 10.1074 2.0813 9.76825 2.0813 9.41463V3.41463C2.0813 3.06101 2.22177 2.72187 2.47182 2.47182C2.72187 2.22177 3.06101 2.0813 3.41463 2.0813H9.41463C9.76825 2.0813 10.1074 2.22177 10.3574 2.47182C10.6075 2.72187 10.748 3.06101 10.748 3.41463V4.0813" stroke="currentColor" stroke-width="1.33397" stroke-linecap="round" stroke-linejoin="round"/>
</g>
<defs>
<clipPath id="clip0_484_2757">
<rect width="16" height="16" fill="white" transform="translate(0.748047 0.748047)"/>
</clipPath>
</defs>
</svg>
