<svg width="17" height="17" viewBox="0 0 17 17" fill="none" xmlns="http://www.w3.org/2000/svg">
<g clip-path="url(#clip0_481_1929)">
<path d="M12.9314 3.41479H4.93136C4.19498 3.41479 3.59802 4.01175 3.59802 4.74813V12.7481C3.59802 13.4845 4.19498 14.0815 4.93136 14.0815H12.9314C13.6677 14.0815 14.2647 13.4845 14.2647 12.7481V4.74813C14.2647 4.01175 13.6677 3.41479 12.9314 3.41479Z" stroke="currentColor" stroke-width="1.33397" stroke-linecap="round" stroke-linejoin="round"/>
<path d="M10.9313 6.74805H6.93127V10.748H10.9313V6.74805Z" stroke="currentColor" stroke-width="1.33397" stroke-linecap="round" stroke-linejoin="round"/>
<path d="M6.93127 1.41479V3.41575" stroke="currentColor" stroke-width="1.33397" stroke-linecap="round" stroke-linejoin="round"/>
<path d="M10.9313 1.41479V3.41575" stroke="currentColor" stroke-width="1.33397" stroke-linecap="round" stroke-linejoin="round"/>
<path d="M6.93127 14.0813V16.0823" stroke="currentColor" stroke-width="1.33397" stroke-linecap="round" stroke-linejoin="round"/>
<path d="M10.9313 14.0813V16.0823" stroke="currentColor" stroke-width="1.33397" stroke-linecap="round" stroke-linejoin="round"/>
<path d="M14.2646 6.74805H16.2656" stroke="currentColor" stroke-width="1.33397" stroke-linecap="round" stroke-linejoin="round"/>
<path d="M14.2646 10.0813H16.2656" stroke="currentColor" stroke-width="1.33397" stroke-linecap="round" stroke-linejoin="round"/>
<path d="M1.59802 6.74805H3.59898" stroke="currentColor" stroke-width="1.33397" stroke-linecap="round" stroke-linejoin="round"/>
<path d="M1.59802 10.0813H3.59898" stroke="currentColor" stroke-width="1.33397" stroke-linecap="round" stroke-linejoin="round"/>
</g>
<defs>
<clipPath id="clip0_481_1929">
<rect width="16" height="16" fill="white" transform="translate(0.931274 0.748047)"/>
</clipPath>
</defs>
</svg>
