<svg width="17" height="17" viewBox="0 0 17 17" fill="none" xmlns="http://www.w3.org/2000/svg">
<g clip-path="url(#clip0_481_1982)">
<path d="M8.12207 1.10181V15.7685" stroke="currentColor" stroke-width="1.33397" stroke-linecap="round" stroke-linejoin="round"/>
<path d="M11.4554 3.76831H6.4554C5.83657 3.76831 5.24307 4.01414 4.80549 4.45173C4.3679 4.88931 4.12207 5.48281 4.12207 6.10164C4.12207 6.72048 4.3679 7.31397 4.80549 7.75156C5.24307 8.18914 5.83657 8.43498 6.4554 8.43498H9.78874C10.4076 8.43498 11.0011 8.68081 11.4387 9.1184C11.8762 9.55598 12.1221 10.1495 12.1221 10.7683C12.1221 11.3871 11.8762 11.9806 11.4387 12.4182C11.0011 12.8558 10.4076 13.1016 9.78874 13.1016H4.12207" stroke="currentColor" stroke-width="1.33397" stroke-linecap="round" stroke-linejoin="round"/>
</g>
<defs>
<clipPath id="clip0_481_1982">
<rect width="16" height="16" fill="white" transform="translate(0.12207 0.435059)"/>
</clipPath>
</defs>
</svg>
