<svg width="17" height="17" viewBox="0 0 17 17" fill="none" xmlns="http://www.w3.org/2000/svg">
<g clip-path="url(#clip0_484_2763)">
<path d="M5.82935 11.7683L8.49601 14.435L11.1627 11.7683" stroke="#141413" stroke-width="1.33397" stroke-linecap="round" stroke-linejoin="round"/>
<path d="M8.49609 8.43506V14.4351" stroke="#141413" stroke-width="1.33397" stroke-linecap="round" stroke-linejoin="round"/>
<path d="M14.416 12.495C14.9956 12.0874 15.4303 11.5058 15.6569 10.8344C15.8835 10.1631 15.8903 9.43703 15.6763 8.76157C15.4623 8.0861 15.0386 7.49641 14.4668 7.07806C13.8949 6.6597 13.2046 6.43446 12.496 6.43501H11.656C11.4555 5.6536 11.0804 4.92785 10.5588 4.3124C10.0372 3.69696 9.38281 3.20785 8.64486 2.88192C7.9069 2.55598 7.10461 2.4017 6.2984 2.43069C5.49219 2.45968 4.70306 2.67119 3.99042 3.0493C3.27778 3.4274 2.6602 3.96225 2.18417 4.61357C1.70815 5.26489 1.38608 6.01571 1.24222 6.80951C1.09836 7.60332 1.13646 8.41941 1.35364 9.19636C1.57082 9.97331 1.96142 10.6909 2.49605 11.295" stroke="#141413" stroke-width="1.33397" stroke-linecap="round" stroke-linejoin="round"/>
</g>
<defs>
<clipPath id="clip0_484_2763">
<rect width="16" height="16" fill="white" transform="translate(0.496094 0.435059)"/>
</clipPath>
</defs>
</svg>
