<svg width="17" height="17" viewBox="0 0 17 17" fill="none" xmlns="http://www.w3.org/2000/svg">
<g clip-path="url(#clip0_481_1972)">
<path d="M8.18302 15.1016C11.8649 15.1016 14.8497 12.1169 14.8497 8.43498C14.8497 4.75308 11.8649 1.76831 8.18302 1.76831C4.50113 1.76831 1.51636 4.75308 1.51636 8.43498C1.51636 12.1169 4.50113 15.1016 8.18302 15.1016Z" stroke="#141413" stroke-width="1.33397" stroke-linecap="round" stroke-linejoin="round"/>
<path d="M5.88977 2.26831C8.80311 6.28831 9.90311 8.54831 11.2431 14.0816M12.9364 3.82831C10.4564 6.72831 6.97644 7.60164 1.68311 7.72831M14.6831 8.99498C12.3498 8.37498 10.2631 8.44831 8.72311 8.99498C7.00311 9.60831 5.38311 10.9016 3.76311 13.2083" stroke="#141413" stroke-width="1.33397" stroke-linecap="round" stroke-linejoin="round"/>
</g>
<defs>
<clipPath id="clip0_481_1972">
<rect width="16" height="16" fill="white" transform="translate(0.183105 0.435059)"/>
</clipPath>
</defs>
</svg>
