<svg width="17" height="17" viewBox="0 0 17 17" fill="none" xmlns="http://www.w3.org/2000/svg">
<g clip-path="url(#clip0_481_1960)">
<path d="M11.5776 2.4351C11.7527 2.26 11.9606 2.12111 12.1894 2.02635C12.4181 1.93159 12.6633 1.88281 12.911 1.88281C13.1586 1.88281 13.4038 1.93159 13.6326 2.02635C13.8613 2.12111 14.0692 2.26 14.2443 2.4351C14.4194 2.61019 14.5583 2.81806 14.6531 3.04684C14.7478 3.27561 14.7966 3.52081 14.7966 3.76843C14.7966 4.01605 14.7478 4.26125 14.6531 4.49003C14.5583 4.7188 14.4194 4.92667 14.2443 5.10176L5.2443 14.1018L1.57764 15.1018L2.57764 11.4351L11.5776 2.4351Z" stroke="#141413" stroke-width="1.33397" stroke-linecap="round" stroke-linejoin="round"/>
</g>
<defs>
<clipPath id="clip0_481_1960">
<rect width="16" height="16" fill="white" transform="translate(0.244263 0.435059)"/>
</clipPath>
</defs>
</svg>
