<svg width="17" height="17" viewBox="0 0 17 17" fill="none" xmlns="http://www.w3.org/2000/svg">
<path d="M7.89038 3.10181H3.22371C2.87009 3.10181 2.53095 3.24228 2.28091 3.49233C2.03086 3.74238 1.89038 4.08152 1.89038 4.43514V13.7685C1.89038 14.1221 2.03086 14.4612 2.28091 14.7113C2.53095 14.9613 2.87009 15.1018 3.22371 15.1018H12.557C12.9107 15.1018 13.2498 14.9613 13.4999 14.7113C13.7499 14.4612 13.8904 14.1221 13.8904 13.7685V9.10181" stroke="#141413" stroke-width="1.33397" stroke-linecap="round" stroke-linejoin="round"/>
<path d="M12.8904 2.10171C13.1556 1.8365 13.5153 1.6875 13.8904 1.6875C14.2655 1.6875 14.6252 1.8365 14.8904 2.10171C15.1556 2.36693 15.3046 2.72664 15.3046 3.10171C15.3046 3.47679 15.1556 3.8365 14.8904 4.10171L8.55705 10.435L5.89038 11.1017L6.55705 8.43505L12.8904 2.10171Z" stroke="#141413" stroke-width="1.33397" stroke-linecap="round" stroke-linejoin="round"/>
</svg>
