<svg width="16" height="17" viewBox="0 0 16 17" fill="none" xmlns="http://www.w3.org/2000/svg">
<g clip-path="url(#clip0_484_2772)">
<path d="M11.9524 12.3952C10.8128 13.2638 9.42513 13.7451 7.99239 13.7685C3.32572 13.7685 0.659058 8.43516 0.659058 8.43516C1.48832 6.88975 2.63848 5.53956 4.03239 4.47516M6.59239 3.26182C7.05128 3.15441 7.5211 3.10072 7.99239 3.10182C12.6591 3.10182 15.3257 8.43516 15.3257 8.43516C14.921 9.19223 14.4384 9.90498 13.8857 10.5618M9.40572 9.84849C9.22263 10.045 9.00182 10.2026 8.75649 10.3119C8.51116 10.4212 8.24633 10.48 7.97778 10.4847C7.70924 10.4895 7.4425 10.4401 7.19346 10.3395C6.94443 10.2389 6.71821 10.0892 6.52829 9.89926C6.33837 9.70934 6.18865 9.48312 6.08806 9.23408C5.98747 8.98505 5.93808 8.7183 5.94281 8.44976C5.94755 8.18122 6.00633 7.91639 6.11564 7.67106C6.22495 7.42572 6.38256 7.20492 6.57906 7.02182" stroke="currentColor" stroke-width="1.33397" stroke-linecap="round" stroke-linejoin="round"/>
<path d="M0.659058 1.10181L15.3257 15.7685" stroke="currentColor" stroke-width="1.33397" stroke-linecap="round" stroke-linejoin="round"/>
</g>
<defs>
<clipPath id="clip0_484_2772">
<rect width="16" height="16" fill="white" transform="translate(-0.00756836 0.435059)"/>
</clipPath>
</defs>
</svg>
