<svg width="17" height="17" viewBox="0 0 17 17" fill="none" xmlns="http://www.w3.org/2000/svg">
<g clip-path="url(#clip0_481_2011)">
<path d="M3.39429 3.78866C3.39429 3.16982 3.64012 2.57632 4.0777 2.13874C4.51529 1.70115 5.10878 1.45532 5.72762 1.45532H8.06095V6.12199H5.72762C5.10878 6.12199 4.51529 5.87616 4.0777 5.43857C3.64012 5.00099 3.39429 4.40749 3.39429 3.78866Z" stroke="currentColor" stroke-width="1.33397" stroke-linecap="round" stroke-linejoin="round"/>
<path d="M8.06104 1.45532H10.3944C10.7008 1.45532 11.0042 1.51568 11.2873 1.63294C11.5704 1.7502 11.8276 1.92207 12.0443 2.13874C12.261 2.35541 12.4328 2.61263 12.5501 2.89573C12.6673 3.17882 12.7277 3.48224 12.7277 3.78866C12.7277 4.09507 12.6673 4.39849 12.5501 4.68158C12.4328 4.96468 12.261 5.2219 12.0443 5.43857C11.8276 5.65524 11.5704 5.82711 11.2873 5.94437C11.0042 6.06164 10.7008 6.12199 10.3944 6.12199H8.06104V1.45532Z" stroke="currentColor" stroke-width="1.33397" stroke-linecap="round" stroke-linejoin="round"/>
<path d="M8.06104 8.4554C8.06104 8.14899 8.12139 7.84557 8.23865 7.56248C8.35591 7.27938 8.52778 7.02216 8.74445 6.80549C8.96112 6.58882 9.21835 6.41695 9.50144 6.29968C9.78453 6.18242 10.088 6.12207 10.3944 6.12207C10.7008 6.12207 11.0042 6.18242 11.2873 6.29968C11.5704 6.41695 11.8276 6.58882 12.0443 6.80549C12.261 7.02216 12.4328 7.27938 12.5501 7.56248C12.6673 7.84557 12.7277 8.14899 12.7277 8.4554C12.7277 8.76182 12.6673 9.06524 12.5501 9.34833C12.4328 9.63142 12.261 9.88865 12.0443 10.1053C11.8276 10.322 11.5704 10.4939 11.2873 10.6111C11.0042 10.7284 10.7008 10.7887 10.3944 10.7887C10.088 10.7887 9.78453 10.7284 9.50144 10.6111C9.21835 10.4939 8.96112 10.322 8.74445 10.1053C8.52778 9.88865 8.35591 9.63142 8.23865 9.34833C8.12139 9.06524 8.06104 8.76182 8.06104 8.4554Z" stroke="currentColor" stroke-width="1.33397" stroke-linecap="round" stroke-linejoin="round"/>
<path d="M3.39429 13.1222C3.39429 12.5033 3.64012 11.9098 4.0777 11.4722C4.51529 11.0347 5.10878 10.7888 5.72762 10.7888H8.06095V13.1222C8.06095 13.741 7.81512 14.3345 7.37754 14.7721C6.93995 15.2097 6.34646 15.4555 5.72762 15.4555C5.10878 15.4555 4.51529 15.2097 4.0777 14.7721C3.64012 14.3345 3.39429 13.741 3.39429 13.1222Z" stroke="currentColor" stroke-width="1.33397" stroke-linecap="round" stroke-linejoin="round"/>
<path d="M3.39429 8.4554C3.39429 7.83657 3.64012 7.24307 4.0777 6.80549C4.51529 6.3679 5.10878 6.12207 5.72762 6.12207H8.06095V10.7887H5.72762C5.10878 10.7887 4.51529 10.5429 4.0777 10.1053C3.64012 9.66773 3.39429 9.07424 3.39429 8.4554Z" stroke="currentColor" stroke-width="1.33397" stroke-linecap="round" stroke-linejoin="round"/>
</g>
<defs>
<clipPath id="clip0_481_2011">
<rect width="16" height="16" fill="white" transform="translate(0.0610352 0.12207)"/>
</clipPath>
</defs>
</svg>
