<svg width="17" height="17" viewBox="0 0 17 17" fill="none" xmlns="http://www.w3.org/2000/svg">
<g clip-path="url(#clip0_481_2029)">
<path d="M10.1425 1.45532H4.80916C4.45554 1.45532 4.1164 1.5958 3.86635 1.84585C3.61631 2.0959 3.47583 2.43503 3.47583 2.78866V13.4553C3.47583 13.8089 3.61631 14.1481 3.86635 14.3981C4.1164 14.6482 4.45554 14.7887 4.80916 14.7887H12.8092C13.1628 14.7887 13.5019 14.6482 13.752 14.3981C14.002 14.1481 14.1425 13.8089 14.1425 13.4553V5.45532L10.1425 1.45532Z" stroke="currentColor" stroke-width="1.33397" stroke-linecap="round" stroke-linejoin="round"/>
<path d="M10.1423 1.45532V5.45532H14.1423" stroke="currentColor" stroke-width="1.33397" stroke-linecap="round" stroke-linejoin="round"/>
<path d="M11.4757 8.78882H6.14233" stroke="currentColor" stroke-width="1.33397" stroke-linecap="round" stroke-linejoin="round"/>
<path d="M11.4757 11.4553H6.14233" stroke="currentColor" stroke-width="1.33397" stroke-linecap="round" stroke-linejoin="round"/>
<path d="M7.4763 6.12207H6.80932H6.14233" stroke="currentColor" stroke-width="1.33397" stroke-linecap="round" stroke-linejoin="round"/>
</g>
<defs>
<clipPath id="clip0_481_2029">
<rect width="16" height="16" fill="white" transform="translate(0.809082 0.12207)"/>
</clipPath>
</defs>
</svg>
