<svg width="17" height="17" viewBox="0 0 17 17" fill="none" xmlns="http://www.w3.org/2000/svg">
<g clip-path="url(#clip0_484_2778)">
<path d="M14.911 12.7887C14.911 13.1424 14.7705 13.4815 14.5204 13.7315C14.2704 13.9816 13.9313 14.1221 13.5776 14.1221H2.91097C2.55735 14.1221 2.21821 13.9816 1.96816 13.7315C1.71811 13.4815 1.57764 13.1424 1.57764 12.7887V3.4554C1.57764 3.10178 1.71811 2.76264 1.96816 2.51259C2.21821 2.26255 2.55735 2.12207 2.91097 2.12207H6.2443L7.57764 4.12207H13.5776C13.9313 4.12207 14.2704 4.26255 14.5204 4.51259C14.7705 4.76264 14.911 5.10178 14.911 5.4554V12.7887Z" stroke="currentColor" stroke-width="1.33397" stroke-linecap="round" stroke-linejoin="round"/>
<path d="M6.24426 9.45532H10.2443" stroke="currentColor" stroke-width="1.33397" stroke-linecap="round" stroke-linejoin="round"/>
</g>
<defs>
<clipPath id="clip0_484_2778">
<rect width="16" height="16" fill="white" transform="translate(0.244263 0.12207)"/>
</clipPath>
</defs>
</svg>
