<svg width="17" height="17" viewBox="0 0 17 17" fill="none" xmlns="http://www.w3.org/2000/svg">
<g clip-path="url(#clip0_484_2777)">
<path d="M15.598 12.7887C15.598 13.1424 15.4575 13.4815 15.2075 13.7315C14.9574 13.9816 14.6183 14.1221 14.2646 14.1221H3.59798C3.24436 14.1221 2.90522 13.9816 2.65517 13.7315C2.40512 13.4815 2.26465 13.1424 2.26465 12.7887V3.4554C2.26465 3.10178 2.40512 2.76264 2.65517 2.51259C2.90522 2.26255 3.24436 2.12207 3.59798 2.12207H6.93132L8.26465 4.12207H14.2646C14.6183 4.12207 14.9574 4.26255 15.2075 4.51259C15.4575 4.76264 15.598 5.10178 15.598 5.4554V12.7887Z" stroke="#141413" stroke-width="1.33397" stroke-linecap="round" stroke-linejoin="round"/>
<path d="M8.93127 7.45532V11.4553" stroke="#141413" stroke-width="1.33397" stroke-linecap="round" stroke-linejoin="round"/>
<path d="M6.93127 9.45532H10.9313" stroke="#141413" stroke-width="1.33397" stroke-linecap="round" stroke-linejoin="round"/>
</g>
<defs>
<clipPath id="clip0_484_2777">
<rect width="16" height="16" fill="white" transform="translate(0.931274 0.12207)"/>
</clipPath>
</defs>
</svg>
