<svg width="16" height="17" viewBox="0 0 16 17" fill="none" xmlns="http://www.w3.org/2000/svg">
<g clip-path="url(#clip0_481_2065)">
<path d="M13.3257 8.12207V14.7887H2.65906V8.12207" stroke="currentColor" stroke-width="1.33397" stroke-linecap="round" stroke-linejoin="round"/>
<path d="M14.6591 4.78882H1.32581V8.12215H14.6591V4.78882Z" stroke="currentColor" stroke-width="1.33397" stroke-linecap="round" stroke-linejoin="round"/>
<path d="M7.99243 14.7888V4.78882" stroke="currentColor" stroke-width="1.33397" stroke-linecap="round" stroke-linejoin="round"/>
<path d="M7.99247 4.78866H4.99247C4.55044 4.78866 4.12652 4.61306 3.81396 4.3005C3.5014 3.98794 3.32581 3.56402 3.32581 3.12199C3.32581 2.67996 3.5014 2.25604 3.81396 1.94348C4.12652 1.63092 4.55044 1.45532 4.99247 1.45532C7.32581 1.45532 7.99247 4.78866 7.99247 4.78866Z" stroke="currentColor" stroke-width="1.33397" stroke-linecap="round" stroke-linejoin="round"/>
<path d="M7.99243 4.78866H10.9924C11.4345 4.78866 11.8584 4.61306 12.1709 4.3005C12.4835 3.98794 12.6591 3.56402 12.6591 3.12199C12.6591 2.67996 12.4835 2.25604 12.1709 1.94348C11.8584 1.63092 11.4345 1.45532 10.9924 1.45532C8.6591 1.45532 7.99243 4.78866 7.99243 4.78866Z" stroke="currentColor" stroke-width="1.33397" stroke-linecap="round" stroke-linejoin="round"/>
</g>
<defs>
<clipPath id="clip0_481_2065">
<rect width="16" height="16" fill="white" transform="translate(-0.00756836 0.12207)"/>
</clipPath>
</defs>
</svg>
