<svg width="16" height="17" viewBox="0 0 16 17" fill="none" xmlns="http://www.w3.org/2000/svg">
<path d="M4 2.80908V10.8091" stroke="currentColor" stroke-width="1.33397" stroke-linecap="round" stroke-linejoin="round"/>
<path d="M12 6.80908C13.1046 6.80908 14 5.91365 14 4.80908C14 3.70451 13.1046 2.80908 12 2.80908C10.8954 2.80908 10 3.70451 10 4.80908C10 5.91365 10.8954 6.80908 12 6.80908Z" stroke="currentColor" stroke-width="1.33397" stroke-linecap="round" stroke-linejoin="round"/>
<path d="M4 14.8091C5.10457 14.8091 6 13.9137 6 12.8091C6 11.7045 5.10457 10.8091 4 10.8091C2.89543 10.8091 2 11.7045 2 12.8091C2 13.9137 2.89543 14.8091 4 14.8091Z" stroke="currentColor" stroke-width="1.33397" stroke-linecap="round" stroke-linejoin="round"/>
<path d="M12 6.80908C12 8.40038 11.3679 9.9265 10.2426 11.0517C9.11742 12.1769 7.5913 12.8091 6 12.8091" stroke="currentColor" stroke-width="1.33397" stroke-linecap="round" stroke-linejoin="round"/>
</svg>
