<svg width="17" height="17" viewBox="0 0 17 17" fill="none" xmlns="http://www.w3.org/2000/svg">
<path d="M12.748 14.8091C13.8526 14.8091 14.748 13.9137 14.748 12.8091C14.748 11.7045 13.8526 10.8091 12.748 10.8091C11.6435 10.8091 10.748 11.7045 10.748 12.8091C10.748 13.9137 11.6435 14.8091 12.748 14.8091Z" stroke="#141413" stroke-width="1.33397" stroke-linecap="round" stroke-linejoin="round"/>
<path d="M4.74805 6.80908C5.85262 6.80908 6.74805 5.91365 6.74805 4.80908C6.74805 3.70451 5.85262 2.80908 4.74805 2.80908C3.64348 2.80908 2.74805 3.70451 2.74805 4.80908C2.74805 5.91365 3.64348 6.80908 4.74805 6.80908Z" stroke="#141413" stroke-width="1.33397" stroke-linecap="round" stroke-linejoin="round"/>
<path d="M4.74805 14.8091V6.80908C4.74805 8.40038 5.38019 9.9265 6.50541 11.0517C7.63062 12.1769 9.15675 12.8091 10.748 12.8091" stroke="#141413" stroke-width="1.33397" stroke-linecap="round" stroke-linejoin="round"/>
</svg>
