<svg width="17" height="17" viewBox="0 0 17 17" fill="none" xmlns="http://www.w3.org/2000/svg">
<path d="M12.4351 14.8091C13.5396 14.8091 14.4351 13.9137 14.4351 12.8091C14.4351 11.7045 13.5396 10.8091 12.4351 10.8091C11.3305 10.8091 10.4351 11.7045 10.4351 12.8091C10.4351 13.9137 11.3305 14.8091 12.4351 14.8091Z" stroke="#141413" stroke-width="1.33397" stroke-linecap="round" stroke-linejoin="round"/>
<path d="M4.43506 6.80908C5.53963 6.80908 6.43506 5.91365 6.43506 4.80908C6.43506 3.70451 5.53963 2.80908 4.43506 2.80908C3.33049 2.80908 2.43506 3.70451 2.43506 4.80908C2.43506 5.91365 3.33049 6.80908 4.43506 6.80908Z" stroke="#141413" stroke-width="1.33397" stroke-linecap="round" stroke-linejoin="round"/>
<path d="M9.10181 4.80908H11.1018C11.4554 4.80908 11.7946 4.94956 12.0446 5.19961C12.2947 5.44965 12.4351 5.78879 12.4351 6.14242V10.8091" stroke="#141413" stroke-width="1.33397" stroke-linecap="round" stroke-linejoin="round"/>
<path d="M4.43506 6.80908V14.8091" stroke="#141413" stroke-width="1.33397" stroke-linecap="round" stroke-linejoin="round"/>
</svg>
