<svg width="17" height="17" viewBox="0 0 17 17" fill="none" xmlns="http://www.w3.org/2000/svg">
<g clip-path="url(#clip0_481_2080)">
<path d="M6.37394 13.4756C3.04061 14.4756 3.04061 11.809 1.70728 11.4756M11.0406 15.4756V12.8956C11.0656 12.5777 11.0227 12.2582 10.9146 11.9582C10.8066 11.6581 10.6359 11.3846 10.4139 11.1556C12.5073 10.9223 14.7073 10.129 14.7073 6.48896C14.7071 5.55818 14.3491 4.66309 13.7073 3.98896C14.0112 3.17463 13.9897 2.27453 13.6473 1.47563C13.6473 1.47563 12.8606 1.24229 11.0406 2.46229C9.51261 2.04817 7.90194 2.04817 6.37394 2.46229C4.55394 1.24229 3.76728 1.47563 3.76728 1.47563C3.42486 2.27453 3.40337 3.17463 3.70728 3.98896C3.06069 4.66809 2.70229 5.57127 2.70728 6.50896C2.70728 10.1223 4.90728 10.9156 7.00061 11.1756C6.78127 11.4023 6.61212 11.6726 6.50415 11.9689C6.39618 12.2652 6.35181 12.581 6.37394 12.8956V15.4756" stroke="#141413" stroke-width="1.33397" stroke-linecap="round" stroke-linejoin="round"/>
</g>
<defs>
<clipPath id="clip0_481_2080">
<rect width="16" height="16" fill="white" transform="translate(0.374023 0.809082)"/>
</clipPath>
</defs>
</svg>
