<svg width="17" height="17" viewBox="0 0 17 17" fill="none" xmlns="http://www.w3.org/2000/svg">
<g clip-path="url(#clip0_481_2082)">
<path d="M15.1611 10.4024L8.06113 15.5624L0.961131 10.4024C0.865948 10.3324 0.795344 10.2341 0.759421 10.1215C0.723498 10.009 0.724097 9.88792 0.761131 9.77572L1.57446 7.25572L3.20113 2.24906C3.21691 2.20826 3.24202 2.17173 3.27446 2.14239C3.32729 2.09414 3.39625 2.06738 3.4678 2.06738C3.53934 2.06738 3.60831 2.09414 3.66113 2.14239C3.69539 2.1755 3.72063 2.2168 3.73447 2.26239L5.36113 7.25572H10.7611L12.3878 2.24906C12.4036 2.20826 12.4287 2.17173 12.4611 2.14239C12.514 2.09414 12.5829 2.06738 12.6545 2.06738C12.726 2.06738 12.795 2.09414 12.8478 2.14239C12.8821 2.1755 12.9073 2.2168 12.9211 2.26239L14.5478 7.26906L15.3945 9.77572C15.4281 9.89138 15.4236 10.0148 15.3816 10.1277C15.3396 10.2406 15.2623 10.3369 15.1611 10.4024Z" stroke="#141413" stroke-width="1.33397" stroke-linecap="round" stroke-linejoin="round"/>
</g>
<defs>
<clipPath id="clip0_481_2082">
<rect width="16" height="16" fill="white" transform="translate(0.0610352 0.809082)"/>
</clipPath>
</defs>
</svg>
