<svg width="17" height="17" viewBox="0 0 17 17" fill="none" xmlns="http://www.w3.org/2000/svg">
<g clip-path="url(#clip0_484_2779)">
<path d="M8.12199 15.4757C11.8039 15.4757 14.7887 12.4909 14.7887 8.809C14.7887 5.1271 11.8039 2.14233 8.12199 2.14233C4.44009 2.14233 1.45532 5.1271 1.45532 8.809C1.45532 12.4909 4.44009 15.4757 8.12199 15.4757Z" stroke="#141413" stroke-width="1.33397" stroke-linecap="round" stroke-linejoin="round"/>
<path d="M1.45532 8.80908H14.7887" stroke="#141413" stroke-width="1.33397" stroke-linecap="round" stroke-linejoin="round"/>
<path d="M8.12199 2.14233C9.78951 3.9679 10.7372 6.33702 10.7887 8.809C10.7372 11.281 9.78951 13.6501 8.12199 15.4757C6.45447 13.6501 5.50682 11.281 5.45532 8.809C5.50682 6.33702 6.45447 3.9679 8.12199 2.14233Z" stroke="#141413" stroke-width="1.33397" stroke-linecap="round" stroke-linejoin="round"/>
</g>
<defs>
<clipPath id="clip0_484_2779">
<rect width="16" height="16" fill="white" transform="translate(0.12207 0.809082)"/>
</clipPath>
</defs>
</svg>
