<svg width="17" height="17" viewBox="0 0 17 17" fill="none" xmlns="http://www.w3.org/2000/svg">
<path d="M2.87012 12.8091V8.80908C2.87012 7.21778 3.50226 5.69166 4.62748 4.56644C5.75269 3.44122 7.27882 2.80908 8.87012 2.80908C10.4614 2.80908 11.9875 3.44122 13.1128 4.56644C14.238 5.69166 14.8701 7.21778 14.8701 8.80908V12.8091" stroke="currentColor" stroke-width="1.33397" stroke-linecap="round" stroke-linejoin="round"/>
<path d="M14.8701 13.4757C14.8701 13.8293 14.7296 14.1684 14.4796 14.4185C14.2295 14.6685 13.8904 14.809 13.5368 14.809H12.8701C12.5165 14.809 12.1774 14.6685 11.9273 14.4185C11.6773 14.1684 11.5368 13.8293 11.5368 13.4757V11.4757C11.5368 11.122 11.6773 10.7829 11.9273 10.5329C12.1774 10.2828 12.5165 10.1423 12.8701 10.1423H14.8701V13.4757ZM2.87012 13.4757C2.87012 13.8293 3.01059 14.1684 3.26064 14.4185C3.51069 14.6685 3.84983 14.809 4.20345 14.809H4.87012C5.22374 14.809 5.56288 14.6685 5.81293 14.4185C6.06297 14.1684 6.20345 13.8293 6.20345 13.4757V11.4757C6.20345 11.122 6.06297 10.7829 5.81293 10.5329C5.56288 10.2828 5.22374 10.1423 4.87012 10.1423H2.87012V13.4757Z" stroke="currentColor" stroke-width="1.33397" stroke-linecap="round" stroke-linejoin="round"/>
</svg>
