<svg width="17" height="17" viewBox="0 0 17 17" fill="none" xmlns="http://www.w3.org/2000/svg">
<g clip-path="url(#clip0_484_2781)">
<path d="M14.4505 3.88241C14.11 3.54175 13.7057 3.27151 13.2607 3.08713C12.8157 2.90276 12.3388 2.80786 11.8571 2.80786C11.3755 2.80786 10.8985 2.90276 10.4536 3.08713C10.0086 3.27151 9.6043 3.54175 9.26379 3.88241L8.55713 4.58908L7.85046 3.88241C7.16267 3.19462 6.22982 2.80822 5.25713 2.80822C4.28444 2.80822 3.35159 3.19462 2.66379 3.88241C1.976 4.57021 1.5896 5.50306 1.5896 6.47574C1.5896 7.44843 1.976 8.38128 2.66379 9.06908L3.37046 9.77574L8.55713 14.9624L13.7438 9.77574L14.4505 9.06908C14.7911 8.72857 15.0614 8.32429 15.2457 7.87932C15.4301 7.43434 15.525 6.9574 15.525 6.47574C15.525 5.99409 15.4301 5.51715 15.2457 5.07217C15.0614 4.6272 14.7911 4.22292 14.4505 3.88241Z" stroke="currentColor" stroke-width="1.33397" stroke-linecap="round" stroke-linejoin="round"/>
</g>
<defs>
<clipPath id="clip0_484_2781">
<rect width="16" height="16" fill="white" transform="translate(0.557129 0.809082)"/>
</clipPath>
</defs>
</svg>
