<svg width="17" height="17" viewBox="0 0 17 17" fill="none" xmlns="http://www.w3.org/2000/svg">
<g clip-path="url(#clip0_481_2121)">
<path d="M14.9313 11.4758V6.14243C14.931 5.90861 14.8693 5.67897 14.7523 5.47654C14.6353 5.27411 14.4671 5.10601 14.2646 4.9891L9.59794 2.32243C9.39525 2.20541 9.16532 2.1438 8.93127 2.1438C8.69723 2.1438 8.4673 2.20541 8.26461 2.32243L3.59794 4.9891C3.39545 5.10601 3.22726 5.27411 3.11025 5.47654C2.99324 5.67897 2.93151 5.90861 2.93127 6.14243V11.4758C2.93151 11.7096 2.99324 11.9392 3.11025 12.1417C3.22726 12.3441 3.39545 12.5122 3.59794 12.6291L8.26461 15.2958C8.4673 15.4128 8.69723 15.4744 8.93127 15.4744C9.16532 15.4744 9.39525 15.4128 9.59794 15.2958L14.2646 12.6291C14.4671 12.5122 14.6353 12.3441 14.7523 12.1417C14.8693 11.9392 14.931 11.7096 14.9313 11.4758Z" stroke="#141413" stroke-width="1.33397" stroke-linecap="round" stroke-linejoin="round"/>
</g>
<defs>
<clipPath id="clip0_481_2121">
<rect width="16" height="16" fill="white" transform="translate(0.931274 0.809082)"/>
</clipPath>
</defs>
</svg>
