<svg width="17" height="17" viewBox="0 0 17 17" fill="none" xmlns="http://www.w3.org/2000/svg">
<path d="M12.9721 2.80908H3.63875C2.90237 2.80908 2.30542 3.40604 2.30542 4.14242V13.4757C2.30542 14.2121 2.90237 14.8091 3.63875 14.8091H12.9721C13.7085 14.8091 14.3054 14.2121 14.3054 13.4757V4.14242C14.3054 3.40604 13.7085 2.80908 12.9721 2.80908Z" stroke="#141413" stroke-width="1.33397" stroke-linecap="round" stroke-linejoin="round"/>
<path d="M5.97252 7.47678C6.52507 7.47678 6.973 7.02886 6.973 6.47631C6.973 5.92376 6.52507 5.47583 5.97252 5.47583C5.41997 5.47583 4.97205 5.92376 4.97205 6.47631C4.97205 7.02886 5.41997 7.47678 5.97252 7.47678Z" stroke="#141413" stroke-width="1.33397" stroke-linecap="round" stroke-linejoin="round"/>
<path d="M14.3055 10.8092L10.9721 7.47583L3.63879 14.8092" stroke="#141413" stroke-width="1.33397" stroke-linecap="round" stroke-linejoin="round"/>
</svg>
