<svg width="16" height="17" viewBox="0 0 16 17" fill="none" xmlns="http://www.w3.org/2000/svg">
<g clip-path="url(#clip0_481_2130)">
<path d="M14.6591 8.80908H10.6591L9.32581 10.8091H6.65914L5.32581 8.80908H1.32581" stroke="#141413" stroke-width="1.33397" stroke-linecap="round" stroke-linejoin="round"/>
<path d="M3.62581 4.21583L1.32581 8.80916V12.8092C1.32581 13.1628 1.46628 13.5019 1.71633 13.752C1.96638 14.002 2.30552 14.1425 2.65914 14.1425H13.3258C13.6794 14.1425 14.0186 14.002 14.2686 13.752C14.5187 13.5019 14.6591 13.1628 14.6591 12.8092V8.80916L12.3591 4.21583C12.2488 3.99369 12.0786 3.80674 11.8678 3.67602C11.657 3.54529 11.4139 3.47596 11.1658 3.47583H4.81914C4.57108 3.47596 4.32798 3.54529 4.11717 3.67602C3.90636 3.80674 3.73619 3.99369 3.62581 4.21583Z" stroke="#141413" stroke-width="1.33397" stroke-linecap="round" stroke-linejoin="round"/>
</g>
<defs>
<clipPath id="clip0_481_2130">
<rect width="16" height="16" fill="white" transform="translate(-0.00756836 0.809082)"/>
</clipPath>
</defs>
</svg>
