<svg width="17" height="17" viewBox="0 0 17 17" fill="none" xmlns="http://www.w3.org/2000/svg">
<g clip-path="url(#clip0_481_2137)">
<path d="M12.0203 1.82935H5.3536C3.51265 1.82935 2.02026 3.32173 2.02026 5.16268V11.8293C2.02026 13.6703 3.51265 15.1627 5.3536 15.1627H12.0203C13.8612 15.1627 15.3536 13.6703 15.3536 11.8293V5.16268C15.3536 3.32173 13.8612 1.82935 12.0203 1.82935Z" stroke="#141413" stroke-width="1.33397" stroke-linecap="round" stroke-linejoin="round"/>
<path d="M11.3538 8.07605C11.4361 8.63088 11.3413 9.19753 11.083 9.69539C10.8246 10.1933 10.4159 10.597 9.91489 10.8492C9.41388 11.1013 8.84611 11.1891 8.29233 11.1C7.73856 11.0109 7.22698 10.7494 6.83037 10.3528C6.43375 9.95621 6.1723 9.44463 6.08319 8.89086C5.99408 8.33709 6.08185 7.76931 6.33403 7.2683C6.5862 6.76729 6.98993 6.35854 7.4878 6.10021C7.98566 5.84188 8.55231 5.74711 9.10714 5.82938C9.67309 5.91331 10.197 6.17703 10.6016 6.58159C11.0062 6.98615 11.2699 7.5101 11.3538 8.07605Z" stroke="#141413" stroke-width="1.33397" stroke-linecap="round" stroke-linejoin="round"/>
<path d="M12.3538 4.82935H12.3604" stroke="#141413" stroke-width="1.33397" stroke-linecap="round" stroke-linejoin="round"/>
</g>
<defs>
<clipPath id="clip0_481_2137">
<rect width="16" height="16" fill="white" transform="translate(0.687012 0.496094)"/>
</clipPath>
</defs>
</svg>
