<svg width="17" height="17" viewBox="0 0 17 17" fill="none" xmlns="http://www.w3.org/2000/svg">
<g clip-path="url(#clip0_481_2145)">
<path d="M14.061 1.82935L12.7276 3.16268M12.7276 3.16268L14.7276 5.16268L12.3943 7.49601L10.3943 5.49601M12.7276 3.16268L10.3943 5.49601M7.65431 8.23601C7.99853 8.57566 8.27218 8.98004 8.45948 9.42587C8.64678 9.87171 8.74404 10.3502 8.74566 10.8338C8.74728 11.3173 8.65323 11.7965 8.46892 12.2435C8.28461 12.6906 8.01368 13.0968 7.67174 13.4388C7.32979 13.7807 6.92359 14.0516 6.47651 14.236C6.02943 14.4203 5.55031 14.5143 5.06673 14.5127C4.58315 14.5111 4.10467 14.4138 3.65883 14.2265C3.213 14.0392 2.80862 13.7656 2.46897 13.4213C1.80106 12.7298 1.43148 11.8036 1.43984 10.8422C1.44819 9.88082 1.83381 8.96117 2.51364 8.28134C3.19347 7.60151 4.11311 7.2159 5.0745 7.20754C6.03589 7.19919 6.9621 7.56877 7.65364 8.23668L7.65431 8.23601ZM7.65431 8.23601L10.3943 5.49601" stroke="#141413" stroke-width="1.33397" stroke-linecap="round" stroke-linejoin="round"/>
</g>
<defs>
<clipPath id="clip0_481_2145">
<rect width="16" height="16" fill="white" transform="translate(0.0610352 0.496094)"/>
</clipPath>
</defs>
</svg>
