<svg width="17" height="17" viewBox="0 0 17 17" fill="none" xmlns="http://www.w3.org/2000/svg">
<g clip-path="url(#clip0_484_2785)">
<path d="M8.12199 15.1627C11.8039 15.1627 14.7887 12.1779 14.7887 8.49601C14.7887 4.81411 11.8039 1.82935 8.12199 1.82935C4.44009 1.82935 1.45532 4.81411 1.45532 8.49601C1.45532 12.1779 4.44009 15.1627 8.12199 15.1627Z" stroke="#141413" stroke-width="1.33397" stroke-linecap="round" stroke-linejoin="round"/>
<path d="M8.12199 11.1627C9.59475 11.1627 10.7887 9.96877 10.7887 8.49601C10.7887 7.02325 9.59475 5.82935 8.12199 5.82935C6.64923 5.82935 5.45532 7.02325 5.45532 8.49601C5.45532 9.96877 6.64923 11.1627 8.12199 11.1627Z" stroke="#141413" stroke-width="1.33397" stroke-linecap="round" stroke-linejoin="round"/>
<path d="M3.40869 3.78271L6.23536 6.60938" stroke="#141413" stroke-width="1.33397" stroke-linecap="round" stroke-linejoin="round"/>
<path d="M10.0088 10.3828L12.8355 13.2095" stroke="#141413" stroke-width="1.33397" stroke-linecap="round" stroke-linejoin="round"/>
<path d="M10.0088 6.60938L12.8355 3.78271" stroke="#141413" stroke-width="1.33397" stroke-linecap="round" stroke-linejoin="round"/>
<path d="M10.0088 6.60944L12.3621 4.2561" stroke="#141413" stroke-width="1.33397" stroke-linecap="round" stroke-linejoin="round"/>
<path d="M3.40869 13.2095L6.23536 10.3828" stroke="#141413" stroke-width="1.33397" stroke-linecap="round" stroke-linejoin="round"/>
</g>
<defs>
<clipPath id="clip0_484_2785">
<rect width="16" height="16" fill="white" transform="translate(0.12207 0.496094)"/>
</clipPath>
</defs>
</svg>
