<svg width="17" height="17" viewBox="0 0 17 17" fill="none" xmlns="http://www.w3.org/2000/svg">
<g clip-path="url(#clip0_484_2786)">
<path d="M7.47583 9.16282C7.76213 9.54557 8.1274 9.86227 8.54686 10.0914C8.96633 10.3206 9.43017 10.4569 9.90693 10.491C10.3837 10.5252 10.8622 10.4564 11.3101 10.2893C11.7579 10.1223 12.1646 9.86087 12.5025 9.52282L14.5025 7.52282C15.1097 6.89415 15.4457 6.05214 15.4381 5.17815C15.4305 4.30416 15.0799 3.46812 14.4619 2.85009C13.8439 2.23206 13.0078 1.8815 12.1338 1.87391C11.2598 1.86631 10.4178 2.20229 9.78916 2.80949L8.6425 3.94949" stroke="#141413" stroke-width="1.33397" stroke-linecap="round" stroke-linejoin="round"/>
<path d="M10.1423 7.82941C9.856 7.44666 9.49073 7.12996 9.07127 6.90079C8.65181 6.67162 8.18797 6.53534 7.7112 6.50119C7.23444 6.46705 6.75591 6.53584 6.30807 6.70289C5.86024 6.86995 5.45356 7.13137 5.11564 7.46941L3.11564 9.46941C2.50844 10.0981 2.17246 10.9401 2.18006 11.8141C2.18765 12.6881 2.53822 13.5241 3.15624 14.1421C3.77427 14.7602 4.61031 15.1107 5.4843 15.1183C6.35829 15.1259 7.2003 14.7899 7.82897 14.1827L8.96897 13.0427" stroke="#141413" stroke-width="1.33397" stroke-linecap="round" stroke-linejoin="round"/>
</g>
<defs>
<clipPath id="clip0_484_2786">
<rect width="16" height="16" fill="white" transform="translate(0.809082 0.496094)"/>
</clipPath>
</defs>
</svg>
