<svg width="17" height="17" viewBox="0 0 17 17" fill="none" xmlns="http://www.w3.org/2000/svg">
<g clip-path="url(#clip0_484_2787)">
<path d="M10.4962 5.16284H12.4962C12.9339 5.16284 13.3674 5.24906 13.7718 5.41658C14.1762 5.58409 14.5437 5.82962 14.8532 6.13915C15.1627 6.44868 15.4083 6.81615 15.5758 7.22056C15.7433 7.62498 15.8295 8.05844 15.8295 8.49618C15.8295 8.93391 15.7433 9.36737 15.5758 9.77179C15.4083 10.1762 15.1627 10.5437 14.8532 10.8532C14.5437 11.1627 14.1762 11.4083 13.7718 11.5758C13.3674 11.7433 12.9339 11.8295 12.4962 11.8295H10.4962M6.49618 11.8295H4.49618C4.05844 11.8295 3.62498 11.7433 3.22056 11.5758C2.81614 11.4083 2.44868 11.1627 2.13915 10.8532C1.51403 10.2281 1.16284 9.38023 1.16284 8.49618C1.16284 7.61212 1.51403 6.76427 2.13915 6.13915C2.76427 5.51403 3.61212 5.16284 4.49618 5.16284H6.49618" stroke="#141413" stroke-width="1.33397" stroke-linecap="round" stroke-linejoin="round"/>
<path d="M5.82935 8.49609H11.1627" stroke="#141413" stroke-width="1.33397" stroke-linecap="round" stroke-linejoin="round"/>
</g>
<defs>
<clipPath id="clip0_484_2787">
<rect width="16" height="16" fill="white" transform="translate(0.496094 0.496094)"/>
</clipPath>
</defs>
</svg>
