<svg width="17" height="17" viewBox="0 0 17 17" fill="none" xmlns="http://www.w3.org/2000/svg">
<g clip-path="url(#clip0_481_2169)">
<path d="M10.8499 5.82935C11.9107 5.82935 12.9281 6.25077 13.6783 7.00092C14.4284 7.75106 14.8499 8.76848 14.8499 9.82935V14.496H12.1832V9.82935C12.1832 9.47572 12.0427 9.13659 11.7927 8.88654C11.5426 8.63649 11.2035 8.49601 10.8499 8.49601C10.4962 8.49601 10.1571 8.63649 9.90704 8.88654C9.657 9.13659 9.51652 9.47572 9.51652 9.82935V14.496H6.84985V9.82935C6.84985 8.76848 7.27128 7.75106 8.02143 7.00092C8.77157 6.25077 9.78899 5.82935 10.8499 5.82935Z" stroke="#141413" stroke-width="1.33397" stroke-linecap="round" stroke-linejoin="round"/>
<path d="M4.18302 6.49609H1.51636V14.4961H4.18302V6.49609Z" stroke="#141413" stroke-width="1.33397" stroke-linecap="round" stroke-linejoin="round"/>
<path d="M2.84969 4.49601C3.58607 4.49601 4.18302 3.89906 4.18302 3.16268C4.18302 2.4263 3.58607 1.82935 2.84969 1.82935C2.11331 1.82935 1.51636 2.4263 1.51636 3.16268C1.51636 3.89906 2.11331 4.49601 2.84969 4.49601Z" stroke="#141413" stroke-width="1.33397" stroke-linecap="round" stroke-linejoin="round"/>
</g>
<defs>
<clipPath id="clip0_481_2169">
<rect width="16" height="16" fill="white" transform="translate(0.183105 0.496094)"/>
</clipPath>
</defs>
</svg>
