<svg width="17" height="17" viewBox="0 0 17 17" fill="none" xmlns="http://www.w3.org/2000/svg">
<path d="M12.9109 7.82935H3.5776C2.84122 7.82935 2.24426 8.4263 2.24426 9.16268V13.8293C2.24426 14.5657 2.84122 15.1627 3.5776 15.1627H12.9109C13.6473 15.1627 14.2443 14.5657 14.2443 13.8293V9.16268C14.2443 8.4263 13.6473 7.82935 12.9109 7.82935Z" stroke="#141413" stroke-width="1.33397" stroke-linecap="round" stroke-linejoin="round"/>
<path d="M4.91089 7.82935V5.16268C4.91089 4.27862 5.26208 3.43078 5.8872 2.80566C6.51232 2.18054 7.36017 1.82935 8.24422 1.82935C9.12828 1.82935 9.97612 2.18054 10.6012 2.80566C11.2264 3.43078 11.5776 4.27862 11.5776 5.16268V7.82935" stroke="#141413" stroke-width="1.33397" stroke-linecap="round" stroke-linejoin="round"/>
</svg>
