<svg width="17" height="17" viewBox="0 0 17 17" fill="none" xmlns="http://www.w3.org/2000/svg">
<path d="M6.02035 2.18311H4.02035C3.66672 2.18311 3.32758 2.32358 3.07754 2.57363C2.82749 2.82368 2.68701 3.16282 2.68701 3.51644V5.51644M14.687 5.51644V3.51644C14.687 3.16282 14.5465 2.82368 14.2965 2.57363C14.0464 2.32358 13.7073 2.18311 13.3537 2.18311H11.3537M11.3537 14.1831H13.3537C13.7073 14.1831 14.0464 14.0426 14.2965 13.7926C14.5465 13.5425 14.687 13.2034 14.687 12.8498V10.8498M2.68701 10.8498V12.8498C2.68701 13.2034 2.82749 13.5425 3.07754 13.7926C3.32758 14.0426 3.66672 14.1831 4.02035 14.1831H6.02035" stroke="#141413" stroke-width="1.33397" stroke-linecap="round" stroke-linejoin="round"/>
</svg>
