<svg width="17" height="17" viewBox="0 0 17 17" fill="none" xmlns="http://www.w3.org/2000/svg">
<path d="M14.4351 7.84979C14.4374 8.7297 14.2318 9.59771 13.8351 10.3831C13.3647 11.3243 12.6416 12.1159 11.7467 12.6693C10.8518 13.2227 9.82055 13.5161 8.76839 13.5165C7.88848 13.5188 7.02047 13.3132 6.23506 12.9165L2.43506 14.1831L3.70173 10.3831C3.30501 9.59771 3.09943 8.7297 3.10173 7.84979C3.10213 6.79763 3.39547 5.76636 3.94887 4.87149C4.50228 3.97662 5.2939 3.2535 6.23506 2.78312C7.02047 2.38641 7.88848 2.18083 8.76839 2.18312H9.10173C10.4913 2.25979 11.8038 2.8463 12.7878 3.83036C13.7719 4.81443 14.3584 6.12689 14.4351 7.51646V7.84979Z" stroke="currentColor" stroke-width="1.33397" stroke-linecap="round" stroke-linejoin="round"/>
</svg>
