<svg width="17" height="17" viewBox="0 0 17 17" fill="none" xmlns="http://www.w3.org/2000/svg">
<g clip-path="url(#clip0_481_2235)">
<path d="M1.16284 0.849854L15.8295 15.5165" stroke="#141413" stroke-width="1.33397" stroke-linecap="round" stroke-linejoin="round"/>
<path d="M6.49609 6.183V8.183C6.49644 8.57831 6.61393 8.96465 6.83371 9.29322C7.0535 9.6218 7.36573 9.87787 7.73096 10.0291C8.0962 10.1803 8.49806 10.2199 8.88579 10.1429C9.27352 10.0659 9.62973 9.87569 9.90943 9.59634M10.4961 6.40967V2.84967C10.4966 2.35369 10.3128 1.87522 9.98034 1.50714C9.64791 1.13906 9.19056 0.907632 8.69709 0.857786C8.20362 0.807941 7.70924 0.943232 7.3099 1.2374C6.91057 1.53156 6.63479 1.96361 6.53609 2.44967" stroke="#141413" stroke-width="1.33397" stroke-linecap="round" stroke-linejoin="round"/>
<path d="M11.8295 11.4832C11.1787 12.1475 10.3442 12.6022 9.43321 12.7889C8.5222 12.9757 7.57616 12.886 6.71647 12.5314C5.85678 12.1768 5.12264 11.5734 4.60825 10.7986C4.09386 10.0239 3.82267 9.11312 3.82947 8.18319V6.84985M13.1628 6.84985V8.18319C13.1626 8.45815 13.138 8.73255 13.0895 9.00319" stroke="#141413" stroke-width="1.33397" stroke-linecap="round" stroke-linejoin="round"/>
<path d="M8.49609 12.8499V15.5165" stroke="#141413" stroke-width="1.33397" stroke-linecap="round" stroke-linejoin="round"/>
<path d="M5.82935 15.5164H11.1627" stroke="#141413" stroke-width="1.33397" stroke-linecap="round" stroke-linejoin="round"/>
</g>
<defs>
<clipPath id="clip0_481_2235">
<rect width="16" height="16" fill="white" transform="translate(0.496094 0.183105)"/>
</clipPath>
</defs>
</svg>
