<svg width="17" height="17" viewBox="0 0 17 17" fill="none" xmlns="http://www.w3.org/2000/svg">
<g clip-path="url(#clip0_481_2230)">
<path d="M8.80908 0.849854C8.27865 0.849854 7.76994 1.06057 7.39487 1.43564C7.0198 1.81071 6.80908 2.31942 6.80908 2.84985V8.18319C6.80908 8.71362 7.0198 9.22233 7.39487 9.5974C7.76994 9.97247 8.27865 10.1832 8.80908 10.1832C9.33952 10.1832 9.84822 9.97247 10.2233 9.5974C10.5984 9.22233 10.8091 8.71362 10.8091 8.18319V2.84985C10.8091 2.31942 10.5984 1.81071 10.2233 1.43564C9.84822 1.06057 9.33952 0.849854 8.80908 0.849854Z" stroke="currentColor" stroke-width="1.33397" stroke-linecap="round" stroke-linejoin="round"/>
<path d="M13.4757 6.84985V8.18319C13.4757 9.42086 12.984 10.6078 12.1088 11.483C11.2337 12.3582 10.0467 12.8499 8.809 12.8499C7.57132 12.8499 6.38434 12.3582 5.50917 11.483C4.634 10.6078 4.14233 9.42086 4.14233 8.18319V6.84985" stroke="currentColor" stroke-width="1.33397" stroke-linecap="round" stroke-linejoin="round"/>
<path d="M8.80908 12.8499V15.5165" stroke="currentColor" stroke-width="1.33397" stroke-linecap="round" stroke-linejoin="round"/>
<path d="M6.14233 15.5164H11.4757" stroke="currentColor" stroke-width="1.33397" stroke-linecap="round" stroke-linejoin="round"/>
</g>
<defs>
<clipPath id="clip0_481_2230">
<rect width="16" height="16" fill="white" transform="translate(0.809082 0.183105)"/>
</clipPath>
</defs>
</svg>
