<svg width="17" height="17" viewBox="0 0 17 17" fill="none" xmlns="http://www.w3.org/2000/svg">
<path d="M5.51644 2.18311V4.18311C5.51644 4.53673 5.37596 4.87587 5.12591 5.12591C4.87587 5.37596 4.53673 5.51644 4.18311 5.51644H2.18311M14.1831 5.51644H12.1831C11.8295 5.51644 11.4903 5.37596 11.2403 5.12591C10.9902 4.87587 10.8498 4.53673 10.8498 4.18311V2.18311M10.8498 14.1831V12.1831C10.8498 11.8295 10.9902 11.4903 11.2403 11.2403C11.4903 10.9902 11.8295 10.8498 12.1831 10.8498H14.1831M2.18311 10.8498H4.18311C4.53673 10.8498 4.87587 10.9902 5.12591 11.2403C5.37596 11.4903 5.51644 11.8295 5.51644 12.1831V14.1831" stroke="#141413" stroke-width="1.33397" stroke-linecap="round" stroke-linejoin="round"/>
</svg>
