<svg width="17" height="17" viewBox="0 0 17 17" fill="none" xmlns="http://www.w3.org/2000/svg">
<path d="M14.3054 8.70977C14.2005 9.84458 13.7746 10.926 13.0775 11.8276C12.3804 12.7292 11.441 13.4136 10.3692 13.8008C9.2973 14.188 8.13734 14.2619 7.02502 14.0138C5.9127 13.7658 4.89402 13.2061 4.08817 12.4003C3.28233 11.5944 2.72265 10.5758 2.47463 9.46344C2.2266 8.35112 2.3005 7.19116 2.68766 6.1193C3.07482 5.04745 3.75924 4.10802 4.66083 3.41094C5.56242 2.71387 6.64389 2.28798 7.77869 2.18311C7.1143 3.08195 6.79459 4.18941 6.87771 5.30405C6.96083 6.41869 7.44126 7.46648 8.23162 8.25684C9.02198 9.0472 10.0698 9.52763 11.1844 9.61075C12.2991 9.69387 13.4065 9.37416 14.3054 8.70977Z" stroke="#141413" stroke-width="1.33397" stroke-linecap="round" stroke-linejoin="round"/>
</svg>
