<svg width="16" height="17" viewBox="0 0 16 17" fill="none" xmlns="http://www.w3.org/2000/svg">
<path d="M8.00024 9.53734C8.3686 9.53734 8.66722 9.23872 8.66722 8.87035C8.66722 8.50199 8.3686 8.20337 8.00024 8.20337C7.63187 8.20337 7.33325 8.50199 7.33325 8.87035C7.33325 9.23872 7.63187 9.53734 8.00024 9.53734Z" stroke="#141413" stroke-width="1.33397" stroke-linecap="round" stroke-linejoin="round"/>
<path d="M8.00024 4.87083C8.3686 4.87083 8.66722 4.57222 8.66722 4.20385C8.66722 3.83548 8.3686 3.53687 8.00024 3.53687C7.63187 3.53687 7.33325 3.83548 7.33325 4.20385C7.33325 4.57222 7.63187 4.87083 8.00024 4.87083Z" stroke="#141413" stroke-width="1.33397" stroke-linecap="round" stroke-linejoin="round"/>
<path d="M8.00024 14.2041C8.3686 14.2041 8.66722 13.9055 8.66722 13.5371C8.66722 13.1687 8.3686 12.8701 8.00024 12.8701C7.63187 12.8701 7.33325 13.1687 7.33325 13.5371C7.33325 13.9055 7.63187 14.2041 8.00024 14.2041Z" stroke="#141413" stroke-width="1.33397" stroke-linecap="round" stroke-linejoin="round"/>
</svg>
