<svg width="16" height="17" viewBox="0 0 16 17" fill="none" xmlns="http://www.w3.org/2000/svg">
<path d="M7.99279 8.85033C8.36116 8.85033 8.65978 8.55171 8.65978 8.18334C8.65978 7.81498 8.36116 7.51636 7.99279 7.51636C7.62442 7.51636 7.32581 7.81498 7.32581 8.18334C7.32581 8.55171 7.62442 8.85033 7.99279 8.85033Z" stroke="currentColor" stroke-width="1.33397" stroke-linecap="round" stroke-linejoin="round"/>
<path d="M12.6594 8.85033C13.0278 8.85033 13.3264 8.55171 13.3264 8.18334C13.3264 7.81498 13.0278 7.51636 12.6594 7.51636C12.2911 7.51636 11.9924 7.81498 11.9924 8.18334C11.9924 8.55171 12.2911 8.85033 12.6594 8.85033Z" stroke="currentColor" stroke-width="1.33397" stroke-linecap="round" stroke-linejoin="round"/>
<path d="M3.32604 8.85033C3.69441 8.85033 3.99303 8.55171 3.99303 8.18334C3.99303 7.81498 3.69441 7.51636 3.32604 7.51636C2.95768 7.51636 2.65906 7.81498 2.65906 8.18334C2.65906 8.55171 2.95768 8.85033 3.32604 8.85033Z" stroke="currentColor" stroke-width="1.33397" stroke-linecap="round" stroke-linejoin="round"/>
</svg>
