<svg width="17" height="17" viewBox="0 0 17 17" fill="none" xmlns="http://www.w3.org/2000/svg">
<path d="M6.06104 12.8701V4.20345L14.061 2.87012V11.5368" stroke="currentColor" stroke-width="1.33397" stroke-linecap="round" stroke-linejoin="round"/>
<path d="M4.06104 14.8701C5.1656 14.8701 6.06104 13.9747 6.06104 12.8701C6.06104 11.7655 5.1656 10.8701 4.06104 10.8701C2.95647 10.8701 2.06104 11.7655 2.06104 12.8701C2.06104 13.9747 2.95647 14.8701 4.06104 14.8701Z" stroke="currentColor" stroke-width="1.33397" stroke-linecap="round" stroke-linejoin="round"/>
<path d="M12.061 13.5369C13.1656 13.5369 14.061 12.6414 14.061 11.5369C14.061 10.4323 13.1656 9.53687 12.061 9.53687C10.9565 9.53687 10.061 10.4323 10.061 11.5369C10.061 12.6414 10.9565 13.5369 12.061 13.5369Z" stroke="currentColor" stroke-width="1.33397" stroke-linecap="round" stroke-linejoin="round"/>
</svg>
