<svg width="17" height="17" viewBox="0 0 17 17" fill="none" xmlns="http://www.w3.org/2000/svg">
<g clip-path="url(#clip0_481_2290)">
<path d="M11.8091 7.13676L5.80908 3.67676" stroke="currentColor" stroke-width="1.33397" stroke-linecap="round" stroke-linejoin="round"/>
<path d="M14.8091 11.5368V6.20347C14.8088 5.96965 14.7471 5.74001 14.6301 5.53758C14.5131 5.33514 14.3449 5.16704 14.1424 5.05013L9.47575 2.38347C9.27306 2.26644 9.04313 2.20483 8.80908 2.20483C8.57503 2.20483 8.34511 2.26644 8.14242 2.38347L3.47575 5.05013C3.27326 5.16704 3.10507 5.33514 2.98806 5.53758C2.87104 5.74001 2.80932 5.96965 2.80908 6.20347V11.5368C2.80932 11.7706 2.87104 12.0003 2.98806 12.2027C3.10507 12.4051 3.27326 12.5732 3.47575 12.6901L8.14242 15.3568C8.34511 15.4738 8.57503 15.5354 8.80908 15.5354C9.04313 15.5354 9.27306 15.4738 9.47575 15.3568L14.1424 12.6901C14.3449 12.5732 14.5131 12.4051 14.6301 12.2027C14.7471 12.0003 14.8088 11.7706 14.8091 11.5368Z" stroke="currentColor" stroke-width="1.33397" stroke-linecap="round" stroke-linejoin="round"/>
<path d="M2.98901 5.51001L8.80901 8.87668L14.629 5.51001" stroke="currentColor" stroke-width="1.33397" stroke-linecap="round" stroke-linejoin="round"/>
<path d="M8.80908 15.5901V8.87012" stroke="currentColor" stroke-width="1.33397" stroke-linecap="round" stroke-linejoin="round"/>
</g>
<defs>
<clipPath id="clip0_481_2290">
<rect width="16" height="16" fill="white" transform="translate(0.809082 0.870117)"/>
</clipPath>
</defs>
</svg>
