<svg width="17" height="17" viewBox="0 0 17 17" fill="none" xmlns="http://www.w3.org/2000/svg">
<g clip-path="url(#clip0_481_2295)">
<path d="M14.7895 8.23689L8.66279 14.3636C7.91223 15.1141 6.89425 15.5358 5.83279 15.5358C4.77134 15.5358 3.75335 15.1141 3.00279 14.3636C2.25223 13.613 1.83057 12.595 1.83057 11.5336C1.83057 10.4721 2.25223 9.45412 3.00279 8.70356L9.12946 2.57689C9.62983 2.07652 10.3085 1.79541 11.0161 1.79541C11.7238 1.79541 12.4024 2.07652 12.9028 2.57689C13.4032 3.07727 13.6843 3.75592 13.6843 4.46356C13.6843 5.1712 13.4032 5.84985 12.9028 6.35023L6.76946 12.4769C6.51927 12.7271 6.17994 12.8676 5.82612 12.8676C5.47231 12.8676 5.13298 12.7271 4.88279 12.4769C4.6326 12.2267 4.49205 11.8874 4.49205 11.5336C4.49205 11.1797 4.6326 10.8404 4.88279 10.5902L10.5428 4.93689" stroke="#141413" stroke-width="1.33397" stroke-linecap="round" stroke-linejoin="round"/>
</g>
<defs>
<clipPath id="clip0_481_2295">
<rect width="16" height="16" fill="white" transform="translate(0.496094 0.870117)"/>
</clipPath>
</defs>
</svg>
