<svg width="16" height="17" viewBox="0 0 16 17" fill="none" xmlns="http://www.w3.org/2000/svg">
<g clip-path="url(#clip0_481_2325)">
<path d="M15.3333 1.22388L11.3333 5.22388" stroke="currentColor" stroke-width="1.33397" stroke-linecap="round" stroke-linejoin="round"/>
<path d="M11.3333 1.22388L15.3333 5.22388" stroke="currentColor" stroke-width="1.33397" stroke-linecap="round" stroke-linejoin="round"/>
<path d="M14.6667 11.8371V13.8371C14.6675 14.0228 14.6294 14.2066 14.555 14.3767C14.4807 14.5468 14.3716 14.6995 14.2348 14.825C14.0979 14.9505 13.9364 15.0461 13.7605 15.1056C13.5847 15.1651 13.3983 15.1872 13.2134 15.1704C11.1619 14.9475 9.19137 14.2465 7.46004 13.1238C5.84926 12.1002 4.48359 10.7346 3.46004 9.12378C2.33336 7.38458 1.6322 5.40444 1.41337 3.34378C1.39671 3.15942 1.41862 2.97362 1.4777 2.7982C1.53679 2.62277 1.63175 2.46157 1.75655 2.32486C1.88134 2.18815 2.03324 2.07892 2.20256 2.00413C2.37189 1.92934 2.55493 1.89062 2.74004 1.89045H4.74004C5.06357 1.88726 5.37723 2.00183 5.62254 2.2128C5.86786 2.42377 6.02809 2.71674 6.07337 3.03711C6.15779 3.67716 6.31434 4.3056 6.54004 4.91045C6.62973 5.14906 6.64915 5.40839 6.59597 5.6577C6.5428 5.90701 6.41928 6.13585 6.24004 6.31711L5.39337 7.16378C6.34241 8.83281 7.72434 10.2147 9.39337 11.1638L10.24 10.3171C10.4213 10.1379 10.6501 10.0143 10.8994 9.96117C11.1488 9.908 11.4081 9.92742 11.6467 10.0171C12.2516 10.2428 12.88 10.3994 13.52 10.4838C13.8439 10.5295 14.1396 10.6926 14.3511 10.9421C14.5625 11.1916 14.6748 11.5102 14.6667 11.8371Z" stroke="currentColor" stroke-width="1.33397" stroke-linecap="round" stroke-linejoin="round"/>
</g>
<defs>
<clipPath id="clip0_481_2325">
<rect width="16" height="16" fill="white" transform="translate(0 0.557129)"/>
</clipPath>
</defs>
</svg>
