<svg width="17" height="17" viewBox="0 0 17 17" fill="none" xmlns="http://www.w3.org/2000/svg">
<g clip-path="url(#clip0_481_2317)">
<path d="M12.972 1.53687L15.6387 4.20353L12.972 6.8702" stroke="currentColor" stroke-width="1.33397" stroke-linecap="round" stroke-linejoin="round"/>
<path d="M10.3054 4.20337H15.6388" stroke="currentColor" stroke-width="1.33397" stroke-linecap="round" stroke-linejoin="round"/>
<path d="M14.9721 12.1501V14.1501C14.9729 14.3358 14.9348 14.5195 14.8605 14.6897C14.7861 14.8598 14.677 15.0125 14.5402 15.138C14.4034 15.2635 14.2418 15.3591 14.066 15.4186C13.8901 15.4781 13.7037 15.5001 13.5188 15.4834C11.4673 15.2605 9.49679 14.5595 7.76546 13.4368C6.15468 12.4132 4.78901 11.0475 3.76546 9.43677C2.63878 7.69757 1.93762 5.71743 1.71879 3.65677C1.70213 3.47241 1.72404 3.28661 1.78312 3.11118C1.84221 2.93576 1.93717 2.77456 2.06197 2.63785C2.18676 2.50114 2.33866 2.39191 2.50798 2.31712C2.67731 2.24232 2.86035 2.20361 3.04546 2.20343H5.04546C5.36899 2.20025 5.68265 2.31482 5.92796 2.52579C6.17328 2.73676 6.33351 3.02973 6.37879 3.3501C6.46321 3.99014 6.61976 4.61859 6.84546 5.22343C6.93515 5.46205 6.95457 5.72138 6.90139 5.97069C6.84822 6.22 6.7247 6.44884 6.54546 6.6301L5.69879 7.47677C6.64783 9.1458 8.02976 10.5277 9.69879 11.4768L10.5455 10.6301C10.7267 10.4509 10.9556 10.3273 11.2049 10.2742C11.4542 10.221 11.7135 10.2404 11.9521 10.3301C12.557 10.5558 13.1854 10.7124 13.8255 10.7968C14.1493 10.8425 14.4451 11.0056 14.6565 11.2551C14.8679 11.5046 14.9802 11.8232 14.9721 12.1501Z" stroke="currentColor" stroke-width="1.33397" stroke-linecap="round" stroke-linejoin="round"/>
</g>
<defs>
<clipPath id="clip0_481_2317">
<rect width="16" height="16" fill="white" transform="translate(0.30542 0.870117)"/>
</clipPath>
</defs>
</svg>
