<svg width="16" height="17" viewBox="0 0 16 17" fill="none" xmlns="http://www.w3.org/2000/svg">
<g clip-path="url(#clip0_481_2321)">
<path d="M10.6591 2.20337V6.20337H14.6591" stroke="currentColor" stroke-width="1.33397" stroke-linecap="round" stroke-linejoin="round"/>
<path d="M15.3257 1.53687L10.6591 6.20353" stroke="currentColor" stroke-width="1.33397" stroke-linecap="round" stroke-linejoin="round"/>
<path d="M14.6591 12.1501V14.1501C14.6599 14.3358 14.6219 14.5195 14.5475 14.6897C14.4731 14.8598 14.364 15.0125 14.2272 15.138C14.0904 15.2635 13.9289 15.3591 13.753 15.4186C13.5771 15.4781 13.3907 15.5001 13.2058 15.4834C11.1544 15.2605 9.1838 14.5595 7.45247 13.4368C5.84169 12.4132 4.47603 11.0475 3.45247 9.43677C2.32579 7.69757 1.62463 5.71743 1.4058 3.65677C1.38914 3.47241 1.41105 3.28661 1.47014 3.11118C1.52922 2.93576 1.62418 2.77456 1.74898 2.63785C1.87378 2.50114 2.02567 2.39191 2.195 2.31712C2.36432 2.24232 2.54736 2.20361 2.73247 2.20343H4.73247C5.05601 2.20025 5.36966 2.31482 5.61498 2.52579C5.86029 2.73676 6.02052 3.02973 6.0658 3.3501C6.15022 3.99014 6.30677 4.61859 6.53247 5.22343C6.62216 5.46205 6.64158 5.72138 6.58841 5.97069C6.53524 6.22 6.41171 6.44884 6.23247 6.6301L5.3858 7.47677C6.33484 9.1458 7.71677 10.5277 9.3858 11.4768L10.2325 10.6301C10.4137 10.4509 10.6426 10.3273 10.8919 10.2742C11.1412 10.221 11.4005 10.2404 11.6391 10.3301C12.244 10.5558 12.8724 10.7124 13.5125 10.7968C13.8363 10.8425 14.1321 11.0056 14.3435 11.2551C14.5549 11.5046 14.6672 11.8232 14.6591 12.1501Z" stroke="currentColor" stroke-width="1.33397" stroke-linecap="round" stroke-linejoin="round"/>
</g>
<defs>
<clipPath id="clip0_481_2321">
<rect width="16" height="16" fill="white" transform="translate(-0.00756836 0.870117)"/>
</clipPath>
</defs>
</svg>
