<svg width="17" height="17" viewBox="0 0 17 17" fill="none" xmlns="http://www.w3.org/2000/svg">
<g clip-path="url(#clip0_481_2329)">
<path d="M7.80705 9.43045C8.48362 10.1076 9.24826 10.6906 10.0804 11.1638L10.927 10.3171C11.1083 10.1379 11.3372 10.0143 11.5865 9.96117C11.8358 9.908 12.0951 9.92742 12.3337 10.0171C12.9386 10.2428 13.567 10.3994 14.207 10.4838C14.5274 10.5291 14.8204 10.6893 15.0314 10.9346C15.2423 11.1799 15.3569 11.4936 15.3537 11.8171V13.8171C15.3545 14.0028 15.3164 14.1866 15.2421 14.3567C15.1677 14.5268 15.0586 14.6795 14.9218 14.805C14.785 14.9305 14.6234 15.0261 14.4475 15.0856C14.2717 15.1451 14.0853 15.1672 13.9004 15.1504C11.8489 14.9275 9.87838 14.2265 8.14705 13.1038C7.34389 12.5938 6.5994 11.9969 5.92705 11.3238M4.14705 9.09711C3.02429 7.36578 2.32329 5.39522 2.10038 3.34378C2.08372 3.15942 2.10563 2.97362 2.16472 2.7982C2.2238 2.62277 2.31876 2.46157 2.44356 2.32486C2.56836 2.18815 2.72025 2.07892 2.88958 2.00413C3.0589 1.92934 3.24194 1.89062 3.42705 1.89045H5.42705C5.75059 1.88726 6.06424 2.00183 6.30956 2.2128C6.55487 2.42377 6.7151 2.71674 6.76038 3.03711C6.8448 3.67716 7.00135 4.3056 7.22705 4.91045C7.31674 5.14906 7.33616 5.40839 7.28299 5.6577C7.22982 5.90701 7.10629 6.13585 6.92705 6.31711L6.08038 7.16378" stroke="#141413" stroke-width="1.33397" stroke-linecap="round" stroke-linejoin="round"/>
<path d="M16.0204 1.22388L1.35376 15.8905" stroke="#141413" stroke-width="1.33397" stroke-linecap="round" stroke-linejoin="round"/>
</g>
<defs>
<clipPath id="clip0_481_2329">
<rect width="16" height="16" fill="white" transform="translate(0.687012 0.557129)"/>
</clipPath>
</defs>
</svg>
