<svg width="17" height="17" viewBox="0 0 17 17" fill="none" xmlns="http://www.w3.org/2000/svg">
<g clip-path="url(#clip0_484_2798)">
<path d="M10.6517 4.20353C11.3028 4.33058 11.9012 4.64904 12.3704 5.11816C12.8395 5.58727 13.1579 6.18571 13.285 6.83687M10.6517 1.53687C12.0045 1.68716 13.2661 2.29298 14.2292 3.25487C15.1923 4.21676 15.7997 5.47754 15.9517 6.8302M15.285 12.1502V14.1502C15.2857 14.3359 15.2477 14.5196 15.1733 14.6898C15.0989 14.8599 14.9899 15.0126 14.853 15.1381C14.7162 15.2636 14.5547 15.3592 14.3788 15.4187C14.2029 15.4782 14.0166 15.5002 13.8317 15.4835C11.7802 15.2606 9.80966 14.5596 8.07832 13.4369C6.46754 12.4133 5.10188 11.0476 4.07832 9.43687C2.95164 7.69767 2.25048 5.71753 2.03166 3.65687C2.015 3.47251 2.03691 3.28671 2.09599 3.11128C2.15507 2.93586 2.25004 2.77466 2.37483 2.63795C2.49963 2.50123 2.65153 2.392 2.82085 2.31721C2.99017 2.24242 3.17322 2.20371 3.35832 2.20353H5.35832C5.68186 2.20035 5.99552 2.31492 6.24083 2.52589C6.48614 2.73686 6.64637 3.02983 6.69166 3.3502C6.77607 3.99024 6.93262 4.61868 7.15832 5.22353C7.24802 5.46215 7.26743 5.72148 7.21426 5.97079C7.16109 6.2201 7.03757 6.44894 6.85832 6.6302L6.01166 7.47687C6.96069 9.1459 8.34263 10.5278 10.0117 11.4769L10.8583 10.6302C11.0396 10.451 11.2684 10.3274 11.5177 10.2743C11.767 10.2211 12.0264 10.2405 12.265 10.3302C12.8698 10.5559 13.4983 10.7125 14.1383 10.7969C14.4622 10.8426 14.7579 11.0057 14.9693 11.2552C15.1808 11.5047 15.2931 11.8232 15.285 12.1502Z" stroke="currentColor" stroke-width="1.33397" stroke-linecap="round" stroke-linejoin="round"/>
</g>
<defs>
<clipPath id="clip0_484_2798">
<rect width="16" height="16" fill="white" transform="translate(0.618408 0.870117)"/>
</clipPath>
</defs>
</svg>
