<svg width="17" height="17" viewBox="0 0 17 17" fill="none" xmlns="http://www.w3.org/2000/svg">
<g clip-path="url(#clip0_481_2313)">
<path d="M15.598 12.1501V14.1501C15.5987 14.3358 15.5607 14.5195 15.4863 14.6897C15.4119 14.8598 15.3028 15.0125 15.166 15.138C15.0292 15.2635 14.8677 15.3591 14.6918 15.4186C14.5159 15.4781 14.3296 15.5001 14.1446 15.4834C12.0932 15.2605 10.1226 14.5595 8.39131 13.4368C6.78053 12.4132 5.41487 11.0475 4.39131 9.43677C3.26463 7.69757 2.56347 5.71743 2.34464 3.65677C2.32798 3.47241 2.34989 3.28661 2.40898 3.11118C2.46806 2.93576 2.56303 2.77456 2.68782 2.63785C2.81262 2.50114 2.96451 2.39191 3.13384 2.31712C3.30316 2.24232 3.4862 2.20361 3.67131 2.20343H5.67131C5.99485 2.20025 6.30851 2.31482 6.55382 2.52579C6.79913 2.73676 6.95936 3.02973 7.00464 3.3501C7.08906 3.99014 7.24561 4.61859 7.47131 5.22343C7.56101 5.46205 7.58042 5.72138 7.52725 5.97069C7.47408 6.22 7.35055 6.44884 7.17131 6.6301L6.32464 7.47677C7.27368 9.1458 8.65561 10.5277 10.3246 11.4768L11.1713 10.6301C11.3526 10.4509 11.5814 10.3273 11.8307 10.2742C12.08 10.221 12.3394 10.2404 12.578 10.3301C13.1828 10.5558 13.8113 10.7124 14.4513 10.7968C14.7752 10.8425 15.0709 11.0056 15.2823 11.2551C15.4938 11.5046 15.6061 11.8232 15.598 12.1501Z" stroke="#141413" stroke-width="1.33397" stroke-linecap="round" stroke-linejoin="round"/>
</g>
<defs>
<clipPath id="clip0_481_2313">
<rect width="16" height="16" fill="white" transform="translate(0.931274 0.870117)"/>
</clipPath>
</defs>
</svg>
