<svg width="17" height="17" viewBox="0 0 17 17" fill="none" xmlns="http://www.w3.org/2000/svg">
<g clip-path="url(#clip0_481_2332)">
<path d="M15.7073 5.22388V1.22388H11.7073" stroke="currentColor" stroke-width="1.33397" stroke-linecap="round" stroke-linejoin="round"/>
<path d="M11.0408 5.89054L15.7074 1.22388" stroke="currentColor" stroke-width="1.33397" stroke-linecap="round" stroke-linejoin="round"/>
<path d="M15.0407 11.8371V13.8371C15.0415 14.0228 15.0034 14.2066 14.9291 14.3767C14.8547 14.5468 14.7456 14.6995 14.6088 14.825C14.472 14.9505 14.3104 15.0461 14.1346 15.1056C13.9587 15.1651 13.7723 15.1872 13.5874 15.1704C11.5359 14.9475 9.56539 14.2465 7.83406 13.1238C6.22328 12.1002 4.85762 10.7346 3.83406 9.12378C2.70738 7.38458 2.00622 5.40444 1.78739 3.34378C1.77073 3.15942 1.79264 2.97362 1.85173 2.7982C1.91081 2.62277 2.00577 2.46157 2.13057 2.32486C2.25537 2.18815 2.40726 2.07892 2.57659 2.00413C2.74591 1.92934 2.92895 1.89062 3.11406 1.89045H5.11406C5.4376 1.88726 5.75125 2.00183 5.99657 2.2128C6.24188 2.42377 6.40211 2.71674 6.44739 3.03711C6.53181 3.67716 6.68836 4.3056 6.91406 4.91045C7.00376 5.14906 7.02317 5.40839 6.97 5.6577C6.91683 5.90701 6.7933 6.13585 6.61406 6.31711L5.76739 7.16378C6.71643 8.83281 8.09836 10.2147 9.76739 11.1638L10.6141 10.3171C10.7953 10.1379 11.0242 10.0143 11.2735 9.96117C11.5228 9.908 11.7821 9.92742 12.0207 10.0171C12.6256 10.2428 13.254 10.3994 13.8941 10.4838C14.2179 10.5295 14.5137 10.6926 14.7251 10.9421C14.9365 11.1916 15.0488 11.5102 15.0407 11.8371Z" stroke="currentColor" stroke-width="1.33397" stroke-linecap="round" stroke-linejoin="round"/>
</g>
<defs>
<clipPath id="clip0_481_2332">
<rect width="16" height="16" fill="white" transform="translate(0.374023 0.557129)"/>
</clipPath>
</defs>
</svg>
