<svg width="17" height="17" viewBox="0 0 17 17" fill="none" xmlns="http://www.w3.org/2000/svg">
<g clip-path="url(#clip0_481_2336)">
<path d="M14.201 11.1505C13.7769 12.1535 13.1135 13.0373 12.2689 13.7247C11.4243 14.4121 10.4242 14.8821 9.35594 15.0937C8.28771 15.3053 7.18393 15.2519 6.14108 14.9384C5.09822 14.6248 4.14806 14.0606 3.37366 13.295C2.59925 12.5293 2.02419 11.5857 1.69874 10.5465C1.37328 9.50728 1.30735 8.40417 1.50671 7.3336C1.70607 6.26303 2.16464 5.2576 2.84234 4.4052C3.52004 3.5528 4.39623 2.87939 5.39431 2.44385" stroke="#141413" stroke-width="1.33397" stroke-linecap="round" stroke-linejoin="round"/>
<path d="M14.7277 8.55705C14.7277 7.68157 14.5553 6.81466 14.2202 6.00582C13.8852 5.19699 13.3941 4.46206 12.7751 3.843C12.156 3.22395 11.4211 2.73288 10.6123 2.39785C9.80342 2.06282 8.93651 1.89038 8.06104 1.89038V8.55705H14.7277Z" stroke="#141413" stroke-width="1.33397" stroke-linecap="round" stroke-linejoin="round"/>
</g>
<defs>
<clipPath id="clip0_481_2336">
<rect width="16" height="16" fill="white" transform="translate(0.0610352 0.557129)"/>
</clipPath>
</defs>
</svg>
