<svg width="17" height="17" viewBox="0 0 17 17" fill="none" xmlns="http://www.w3.org/2000/svg">
<g clip-path="url(#clip0_481_2355)">
<path d="M2.84969 2.55713H13.5164C13.87 2.55713 14.2091 2.6976 14.4592 2.94765C14.7092 3.1977 14.8497 3.53684 14.8497 3.89046V7.89046C14.8497 9.65857 14.1473 11.3543 12.8971 12.6045C11.6468 13.8548 9.95113 14.5571 8.18302 14.5571C7.30755 14.5571 6.44064 14.3847 5.6318 14.0497C4.82296 13.7146 4.08804 13.2236 3.46898 12.6045C2.21874 11.3543 1.51636 9.65857 1.51636 7.89046V3.89046C1.51636 3.53684 1.65683 3.1977 1.90688 2.94765C2.15693 2.6976 2.49607 2.55713 2.84969 2.55713Z" stroke="currentColor" stroke-width="1.33397" stroke-linecap="round" stroke-linejoin="round"/>
<path d="M5.51636 7.22388L8.18302 9.89054L10.8497 7.22388" stroke="currentColor" stroke-width="1.33397" stroke-linecap="round" stroke-linejoin="round"/>
</g>
<defs>
<clipPath id="clip0_481_2355">
<rect width="16" height="16" fill="white" transform="translate(0.183105 0.557129)"/>
</clipPath>
</defs>
</svg>
