<svg width="17" height="17" viewBox="0 0 17 17" fill="none" xmlns="http://www.w3.org/2000/svg">
<path d="M4.55713 6.55705V1.89038H12.5571V6.55705" stroke="currentColor" stroke-width="1.33397" stroke-linecap="round" stroke-linejoin="round"/>
<path d="M4.55705 12.5571H3.22371C2.87009 12.5571 2.53095 12.4167 2.28091 12.1666C2.03086 11.9166 1.89038 11.5774 1.89038 11.2238V7.89046C1.89038 7.53684 2.03086 7.1977 2.28091 6.94765C2.53095 6.6976 2.87009 6.55713 3.22371 6.55713H13.8904C14.244 6.55713 14.5831 6.6976 14.8332 6.94765C15.0832 7.1977 15.2237 7.53684 15.2237 7.89046V11.2238C15.2237 11.5774 15.0832 11.9166 14.8332 12.1666C14.5831 12.4167 14.244 12.5571 13.8904 12.5571H12.557" stroke="currentColor" stroke-width="1.33397" stroke-linecap="round" stroke-linejoin="round"/>
<path d="M12.5571 9.89038H4.55713V15.2237H12.5571V9.89038Z" stroke="currentColor" stroke-width="1.33397" stroke-linecap="round" stroke-linejoin="round"/>
</svg>
