<svg width="17" height="17" viewBox="0 0 17 17" fill="none" xmlns="http://www.w3.org/2000/svg">
<g clip-path="url(#clip0_481_2365)">
<path d="M8.24422 9.89054C8.9806 9.89054 9.57756 9.29359 9.57756 8.55721C9.57756 7.82083 8.9806 7.22388 8.24422 7.22388C7.50784 7.22388 6.91089 7.82083 6.91089 8.55721C6.91089 9.29359 7.50784 9.89054 8.24422 9.89054Z" stroke="#141413" stroke-width="1.33397" stroke-linecap="round" stroke-linejoin="round"/>
<path d="M11.0709 5.73042C11.4428 6.10191 11.7378 6.54306 11.9391 7.02866C12.1404 7.51425 12.244 8.03476 12.244 8.56042C12.244 9.08608 12.1404 9.60659 11.9391 10.0922C11.7378 10.5778 11.4428 11.0189 11.0709 11.3904M5.41756 11.3837C5.04565 11.0123 4.75061 10.5711 4.54932 10.0855C4.34802 9.59992 4.24441 9.07941 4.24441 8.55375C4.24441 8.02809 4.34802 7.50758 4.54932 7.02199C4.75061 6.5364 5.04565 6.09524 5.41756 5.72375M12.9576 3.84375C14.2074 5.09393 14.9095 6.78932 14.9095 8.55708C14.9095 10.3248 14.2074 12.0202 12.9576 13.2704M3.53089 13.2704C2.28108 12.0202 1.57898 10.3248 1.57898 8.55708C1.57898 6.78932 2.28108 5.09393 3.53089 3.84375" stroke="#141413" stroke-width="1.33397" stroke-linecap="round" stroke-linejoin="round"/>
</g>
<defs>
<clipPath id="clip0_481_2365">
<rect width="16" height="16" fill="white" transform="translate(0.244263 0.557129)"/>
</clipPath>
</defs>
</svg>
