<svg width="17" height="17" viewBox="0 0 17 17" fill="none" xmlns="http://www.w3.org/2000/svg">
<g clip-path="url(#clip0_484_2801)">
<path d="M15.9517 3.22388V7.22388H11.9517" stroke="#141413" stroke-width="1.33397" stroke-linecap="round" stroke-linejoin="round"/>
<path d="M1.28503 13.8904V9.89038H5.28503" stroke="#141413" stroke-width="1.33397" stroke-linecap="round" stroke-linejoin="round"/>
<path d="M2.95837 6.55702C3.29648 5.60154 3.87112 4.74729 4.62868 4.07396C5.38623 3.40064 6.30201 2.93019 7.29056 2.70652C8.27911 2.48285 9.3082 2.51324 10.2818 2.79487C11.2555 3.07649 12.1419 3.60016 12.8584 4.31702L15.9517 7.22368M1.28503 9.89035L4.37837 12.797C5.09487 13.5139 5.98128 14.0375 6.95491 14.3192C7.92853 14.6008 8.95763 14.6312 9.94618 14.4075C10.9347 14.1838 11.8505 13.7134 12.6081 13.0401C13.3656 12.3667 13.9403 11.5125 14.2784 10.557" stroke="#141413" stroke-width="1.33397" stroke-linecap="round" stroke-linejoin="round"/>
</g>
<defs>
<clipPath id="clip0_484_2801">
<rect width="16" height="16" fill="white" transform="translate(0.618408 0.557129)"/>
</clipPath>
</defs>
</svg>
