<svg width="17" height="17" viewBox="0 0 17 17" fill="none" xmlns="http://www.w3.org/2000/svg">
<g clip-path="url(#clip0_481_2368)">
<path d="M1.59802 3.22388V7.22388H5.59802" stroke="#141413" stroke-width="1.33397" stroke-linecap="round" stroke-linejoin="round"/>
<path d="M16.2646 13.8904V9.89038H12.2646" stroke="#141413" stroke-width="1.33397" stroke-linecap="round" stroke-linejoin="round"/>
<path d="M14.5914 6.55702C14.2532 5.60154 13.6786 4.74729 12.921 4.07396C12.1635 3.40064 11.2477 2.93019 10.2592 2.70652C9.27062 2.48285 8.24152 2.51324 7.2679 2.79487C6.29427 3.07649 5.40785 3.60016 4.69136 4.31702L1.59802 7.22368M16.2647 9.89035L13.1714 12.797C12.4549 13.5139 11.5684 14.0375 10.5948 14.3192C9.62119 14.6008 8.59209 14.6312 7.60355 14.4075C6.615 14.1838 5.69922 13.7134 4.94167 13.0401C4.18411 12.3667 3.60947 11.5125 3.27136 10.557" stroke="#141413" stroke-width="1.33397" stroke-linecap="round" stroke-linejoin="round"/>
</g>
<defs>
<clipPath id="clip0_481_2368">
<rect width="16" height="16" fill="white" transform="translate(0.931274 0.557129)"/>
</clipPath>
</defs>
</svg>
