<svg width="17" height="17" viewBox="0 0 17 17" fill="none" xmlns="http://www.w3.org/2000/svg">
<g clip-path="url(#clip0_481_2387)">
<path d="M16.0203 2.91089V6.91089H12.0203" stroke="#141413" stroke-width="1.33397" stroke-linecap="round" stroke-linejoin="round"/>
<path d="M14.347 10.2441C13.9137 11.4707 13.0934 12.5232 12.0098 13.2431C10.9262 13.9629 9.63798 14.3111 8.33929 14.2351C7.0406 14.1592 5.80178 13.6631 4.80952 12.8218C3.81725 11.9806 3.1253 10.8395 2.83792 9.57077C2.55055 8.302 2.68333 6.97419 3.21625 5.78745C3.74918 4.6007 4.65337 3.61931 5.79258 2.99116C6.93179 2.36301 8.2443 2.12214 9.53232 2.30483C10.8203 2.48753 12.0141 3.08389 12.9337 4.00407L16.0203 6.91074" stroke="#141413" stroke-width="1.33397" stroke-linecap="round" stroke-linejoin="round"/>
</g>
<defs>
<clipPath id="clip0_481_2387">
<rect width="16" height="16" fill="white" transform="translate(0.687012 0.244141)"/>
</clipPath>
</defs>
</svg>
