<svg width="17" height="17" viewBox="0 0 17 17" fill="none" xmlns="http://www.w3.org/2000/svg">
<path d="M4.74805 6.24414C5.85262 6.24414 6.74805 5.34871 6.74805 4.24414C6.74805 3.13957 5.85262 2.24414 4.74805 2.24414C3.64348 2.24414 2.74805 3.13957 2.74805 4.24414C2.74805 5.34871 3.64348 6.24414 4.74805 6.24414Z" stroke="currentColor" stroke-width="1.33397" stroke-linecap="round" stroke-linejoin="round"/>
<path d="M4.74805 14.2441C5.85262 14.2441 6.74805 13.3487 6.74805 12.2441C6.74805 11.1396 5.85262 10.2441 4.74805 10.2441C3.64348 10.2441 2.74805 11.1396 2.74805 12.2441C2.74805 13.3487 3.64348 14.2441 4.74805 14.2441Z" stroke="currentColor" stroke-width="1.33397" stroke-linecap="round" stroke-linejoin="round"/>
<path d="M14.0814 2.91089L6.16138 10.8309" stroke="currentColor" stroke-width="1.33397" stroke-linecap="round" stroke-linejoin="round"/>
<path d="M10.3948 9.89746L14.0814 13.5775" stroke="currentColor" stroke-width="1.33397" stroke-linecap="round" stroke-linejoin="round"/>
<path d="M6.16138 5.65747L8.74804 8.24414" stroke="currentColor" stroke-width="1.33397" stroke-linecap="round" stroke-linejoin="round"/>
</svg>
