<svg width="17" height="17" viewBox="0 0 17 17" fill="none" xmlns="http://www.w3.org/2000/svg">
<g clip-path="url(#clip0_481_2410)">
<path d="M14.1423 1.57739H3.47567C2.73929 1.57739 2.14233 2.17435 2.14233 2.91073V5.57739C2.14233 6.31377 2.73929 6.91073 3.47567 6.91073H14.1423C14.8787 6.91073 15.4757 6.31377 15.4757 5.57739V2.91073C15.4757 2.17435 14.8787 1.57739 14.1423 1.57739Z" stroke="currentColor" stroke-width="1.33397" stroke-linecap="round" stroke-linejoin="round"/>
<path d="M14.1423 9.57739H3.47567C2.73929 9.57739 2.14233 10.1743 2.14233 10.9107V13.5774C2.14233 14.3138 2.73929 14.9107 3.47567 14.9107H14.1423C14.8787 14.9107 15.4757 14.3138 15.4757 13.5774V10.9107C15.4757 10.1743 14.8787 9.57739 14.1423 9.57739Z" stroke="currentColor" stroke-width="1.33397" stroke-linecap="round" stroke-linejoin="round"/>
<path d="M4.80908 4.24414H4.81575" stroke="currentColor" stroke-width="1.33397" stroke-linecap="round" stroke-linejoin="round"/>
<path d="M4.80908 12.2441H4.81575" stroke="currentColor" stroke-width="1.33397" stroke-linecap="round" stroke-linejoin="round"/>
</g>
<defs>
<clipPath id="clip0_481_2410">
<rect width="16" height="16" fill="white" transform="translate(0.809082 0.244141)"/>
</clipPath>
</defs>
</svg>
