<svg width="17" height="17" viewBox="0 0 17 17" fill="none" xmlns="http://www.w3.org/2000/svg">
<g clip-path="url(#clip0_484_2804)">
<path d="M8.49609 10.2441C9.60066 10.2441 10.4961 9.34871 10.4961 8.24414C10.4961 7.13957 9.60066 6.24414 8.49609 6.24414C7.39152 6.24414 6.49609 7.13957 6.49609 8.24414C6.49609 9.34871 7.39152 10.2441 8.49609 10.2441Z" stroke="currentColor" stroke-width="1.33397" stroke-linecap="round" stroke-linejoin="round"/>
<path d="M13.4295 10.2442C13.3408 10.4453 13.3143 10.6684 13.3535 10.8846C13.3927 11.1009 13.4958 11.3004 13.6495 11.4576L13.6895 11.4976C13.8135 11.6214 13.9118 11.7684 13.9789 11.9303C14.046 12.0922 14.0806 12.2657 14.0806 12.4409C14.0806 12.6161 14.046 12.7896 13.9789 12.9515C13.9118 13.1133 13.8135 13.2604 13.6895 13.3842C13.5657 13.5082 13.4186 13.6065 13.2568 13.6736C13.0949 13.7407 12.9214 13.7753 12.7462 13.7753C12.571 13.7753 12.3975 13.7407 12.2356 13.6736C12.0737 13.6065 11.9267 13.5082 11.8028 13.3842L11.7628 13.3442C11.6057 13.1905 11.4062 13.0874 11.1899 13.0482C10.9736 13.009 10.7506 13.0355 10.5495 13.1242C10.3523 13.2087 10.1842 13.3491 10.0657 13.5279C9.94726 13.7068 9.8837 13.9164 9.88284 14.1309V14.2442C9.88284 14.5978 9.74237 14.937 9.49232 15.187C9.24227 15.4371 8.90313 15.5776 8.54951 15.5776C8.19589 15.5776 7.85675 15.4371 7.6067 15.187C7.35665 14.937 7.21618 14.5978 7.21618 14.2442V14.1842C7.21101 13.9636 7.13959 13.7496 7.01118 13.57C6.88278 13.3905 6.70333 13.2537 6.49618 13.1776C6.2951 13.0888 6.07205 13.0623 5.85578 13.1016C5.63952 13.1408 5.43996 13.2439 5.28284 13.3976L5.24284 13.4376C5.11901 13.5615 4.97196 13.6599 4.8101 13.727C4.64823 13.7941 4.47473 13.8286 4.29951 13.8286C4.12429 13.8286 3.95079 13.7941 3.78892 13.727C3.62706 13.6599 3.48001 13.5615 3.35618 13.4376C3.23221 13.3137 3.13386 13.1667 3.06676 13.0048C2.99966 12.8429 2.96513 12.6694 2.96513 12.4942C2.96513 12.319 2.99966 12.1455 3.06676 11.9836C3.13386 11.8218 3.23221 11.6747 3.35618 11.5509L3.39618 11.5109C3.54987 11.3538 3.65297 11.1542 3.69218 10.9379C3.73139 10.7217 3.70492 10.4986 3.61618 10.2976C3.53167 10.1004 3.39135 9.93221 3.21249 9.81376C3.03363 9.69531 2.82403 9.63174 2.60951 9.63089H2.49618C2.14255 9.63089 1.80341 9.49041 1.55337 9.24036C1.30332 8.99032 1.16284 8.65118 1.16284 8.29756C1.16284 7.94393 1.30332 7.6048 1.55337 7.35475C1.80341 7.1047 2.14255 6.96422 2.49618 6.96422H2.55618C2.77684 6.95906 2.99085 6.88763 3.17037 6.75923C3.3499 6.63082 3.48665 6.45138 3.56284 6.24422C3.65159 6.04314 3.67806 5.82009 3.63884 5.60383C3.59963 5.38757 3.49653 5.18801 3.34284 5.03089L3.30284 4.99089C3.17887 4.86706 3.08053 4.72001 3.01343 4.55814C2.94633 4.39628 2.91179 4.22278 2.91179 4.04756C2.91179 3.87233 2.94633 3.69883 3.01343 3.53697C3.08053 3.3751 3.17887 3.22805 3.30284 3.10422C3.42667 2.98025 3.57372 2.88191 3.73559 2.81481C3.89745 2.74771 4.07095 2.71317 4.24618 2.71317C4.4214 2.71317 4.5949 2.74771 4.75676 2.81481C4.91863 2.88191 5.06568 2.98025 5.18951 3.10422L5.22951 3.14422C5.38663 3.29791 5.58619 3.40101 5.80245 3.44023C6.01871 3.47944 6.24176 3.45297 6.44284 3.36422H6.49618C6.69335 3.27971 6.86152 3.13939 6.97997 2.96053C7.09842 2.78167 7.16199 2.57208 7.16284 2.35756V2.24422C7.16284 1.8906 7.30332 1.55146 7.55337 1.30141C7.80342 1.05136 8.14255 0.910889 8.49618 0.910889C8.8498 0.910889 9.18894 1.05136 9.43898 1.30141C9.68903 1.55146 9.82951 1.8906 9.82951 2.24422V2.30422C9.83036 2.51875 9.89393 2.72834 10.0124 2.9072C10.1308 3.08606 10.299 3.22638 10.4962 3.31089C10.6973 3.39963 10.9203 3.4261 11.1366 3.38689C11.3528 3.34768 11.5524 3.24458 11.7095 3.09089L11.7495 3.05089C11.8733 2.92692 12.0204 2.82857 12.1823 2.76148C12.3441 2.69438 12.5176 2.65984 12.6928 2.65984C12.8681 2.65984 13.0416 2.69438 13.2034 2.76148C13.3653 2.82857 13.5123 2.92692 13.6362 3.05089C13.7601 3.17472 13.8585 3.32177 13.9256 3.48364C13.9927 3.6455 14.0272 3.819 14.0272 3.99422C14.0272 4.16944 13.9927 4.34295 13.9256 4.50481C13.8585 4.66667 13.7601 4.81372 13.6362 4.93756L13.5962 4.97756C13.4425 5.13467 13.3394 5.33423 13.3002 5.5505C13.261 5.76676 13.2874 5.98981 13.3762 6.19089V6.24422C13.4607 6.4414 13.601 6.60957 13.7799 6.72802C13.9587 6.84647 14.1683 6.91003 14.3828 6.91089H14.4962C14.8498 6.91089 15.1889 7.05136 15.439 7.30141C15.689 7.55146 15.8295 7.8906 15.8295 8.24422C15.8295 8.59784 15.689 8.93698 15.439 9.18703C15.1889 9.43708 14.8498 9.57756 14.4962 9.57756H14.4362C14.2217 9.57841 14.0121 9.64198 13.8332 9.76043C13.6543 9.87888 13.514 10.047 13.4295 10.2442Z" stroke="currentColor" stroke-width="1.33397" stroke-linecap="round" stroke-linejoin="round"/>
</g>
<defs>
<clipPath id="clip0_484_2804">
<rect width="16" height="16" fill="white" transform="translate(0.496094 0.244141)"/>
</clipPath>
</defs>
</svg>
