<svg width="17" height="17" viewBox="0 0 17 17" fill="none" xmlns="http://www.w3.org/2000/svg">
<g clip-path="url(#clip0_484_2807)">
<path d="M6.61864 14.9114C6.98701 14.9114 7.28563 14.6127 7.28563 14.2444C7.28563 13.876 6.98701 13.5774 6.61864 13.5774C6.25028 13.5774 5.95166 13.876 5.95166 14.2444C5.95166 14.6127 6.25028 14.9114 6.61864 14.9114Z" stroke="currentColor" stroke-width="1.33397" stroke-linecap="round" stroke-linejoin="round"/>
<path d="M13.952 14.9114C14.3204 14.9114 14.619 14.6127 14.619 14.2444C14.619 13.876 14.3204 13.5774 13.952 13.5774C13.5837 13.5774 13.285 13.876 13.285 14.2444C13.285 14.6127 13.5837 14.9114 13.952 14.9114Z" stroke="currentColor" stroke-width="1.33397" stroke-linecap="round" stroke-linejoin="round"/>
<path d="M1.28503 0.910889H3.9517L5.73837 9.83756C5.79933 10.1445 5.96631 10.4202 6.21006 10.6164C6.45382 10.8126 6.75883 10.9169 7.0717 10.9109H13.5517C13.8646 10.9169 14.1696 10.8126 14.4133 10.6164C14.6571 10.4202 14.8241 10.1445 14.885 9.83756L15.9517 4.24422H4.61837" stroke="currentColor" stroke-width="1.33397" stroke-linecap="round" stroke-linejoin="round"/>
</g>
<defs>
<clipPath id="clip0_484_2807">
<rect width="16" height="16" fill="white" transform="translate(0.618408 0.244141)"/>
</clipPath>
</defs>
</svg>
