<svg width="17" height="17" viewBox="0 0 17 17" fill="none" xmlns="http://www.w3.org/2000/svg">
<g clip-path="url(#clip0_481_2457)">
<path d="M10.0408 7.59774C9.48744 7.59774 9.04077 7.15107 9.04077 6.59774V3.2644C9.04077 2.71107 9.48744 2.2644 10.0408 2.2644C10.5941 2.2644 11.0408 2.71107 11.0408 3.2644V6.59774C11.0408 7.15107 10.5941 7.59774 10.0408 7.59774Z" stroke="#141413" stroke-width="1.33397" stroke-linecap="round" stroke-linejoin="round"/>
<path d="M14.0412 7.59885H13.0408V6.59838C13.0408 6.04478 13.4877 5.5979 14.0412 5.5979C14.5948 5.5979 15.0417 6.04478 15.0417 6.59838C15.0417 7.15197 14.5948 7.59885 14.0412 7.59885Z" stroke="#141413" stroke-width="1.33397" stroke-linecap="round" stroke-linejoin="round"/>
<path d="M6.70728 10.2644C7.26061 10.2644 7.70728 10.7111 7.70728 11.2644V14.5977C7.70728 15.1511 7.26061 15.5977 6.70728 15.5977C6.15394 15.5977 5.70728 15.1511 5.70728 14.5977V11.2644C5.70728 10.7111 6.15394 10.2644 6.70728 10.2644Z" stroke="#141413" stroke-width="1.33397" stroke-linecap="round" stroke-linejoin="round"/>
<path d="M2.70775 10.2644H3.70823V11.2649C3.70823 11.8185 3.26135 12.2654 2.70775 12.2654C2.15416 12.2654 1.70728 11.8185 1.70728 11.2649C1.70728 10.7113 2.15416 10.2644 2.70775 10.2644Z" stroke="#141413" stroke-width="1.33397" stroke-linecap="round" stroke-linejoin="round"/>
<path d="M9.70728 10.5979C9.70728 10.0446 10.1539 9.5979 10.7073 9.5979H14.0406C14.5939 9.5979 15.0406 10.0446 15.0406 10.5979C15.0406 11.1512 14.5939 11.5979 14.0406 11.5979H10.7073C10.1539 11.5979 9.70728 11.1512 9.70728 10.5979Z" stroke="#141413" stroke-width="1.33397" stroke-linecap="round" stroke-linejoin="round"/>
<path d="M10.7078 13.5979H9.70728V14.5984C9.70728 15.152 10.1542 15.5989 10.7078 15.5989C11.2613 15.5989 11.7082 15.152 11.7082 14.5984C11.7082 14.0448 11.2613 13.5979 10.7078 13.5979Z" stroke="#141413" stroke-width="1.33397" stroke-linecap="round" stroke-linejoin="round"/>
<path d="M7.04061 7.2644C7.04061 6.71107 6.59394 6.2644 6.04061 6.2644H2.70728C2.15394 6.2644 1.70728 6.71107 1.70728 7.2644C1.70728 7.81774 2.15394 8.2644 2.70728 8.2644H6.04061C6.59394 8.2644 7.04061 7.81774 7.04061 7.2644Z" stroke="#141413" stroke-width="1.33397" stroke-linecap="round" stroke-linejoin="round"/>
<path d="M6.04125 4.26536H7.04173V3.26488C7.04173 2.71128 6.59485 2.2644 6.04125 2.2644C5.48765 2.2644 5.04077 2.71128 5.04077 3.26488C5.04077 3.81848 5.48765 4.26536 6.04125 4.26536Z" stroke="#141413" stroke-width="1.33397" stroke-linecap="round" stroke-linejoin="round"/>
</g>
<defs>
<clipPath id="clip0_481_2457">
<rect width="16" height="16" fill="white" transform="translate(0.374023 0.931152)"/>
</clipPath>
</defs>
</svg>
