<svg width="17" height="17" viewBox="0 0 17 17" fill="none" xmlns="http://www.w3.org/2000/svg">
<g clip-path="url(#clip0_481_2498)">
<path d="M8.55721 12.2646C10.3982 12.2646 11.8905 10.7722 11.8905 8.93123C11.8905 7.09028 10.3982 5.5979 8.55721 5.5979C6.71626 5.5979 5.22388 7.09028 5.22388 8.93123C5.22388 10.7722 6.71626 12.2646 8.55721 12.2646Z" stroke="currentColor" stroke-width="1.33397" stroke-linecap="round" stroke-linejoin="round"/>
<path d="M8.55713 1.5979V2.93187" stroke="currentColor" stroke-width="1.33397" stroke-linecap="round" stroke-linejoin="round"/>
<path d="M8.55713 14.9312V16.2651" stroke="currentColor" stroke-width="1.33397" stroke-linecap="round" stroke-linejoin="round"/>
<path d="M3.37036 3.74463L4.31748 4.69175" stroke="currentColor" stroke-width="1.33397" stroke-linecap="round" stroke-linejoin="round"/>
<path d="M12.7971 13.1711L13.7442 14.1183" stroke="currentColor" stroke-width="1.33397" stroke-linecap="round" stroke-linejoin="round"/>
<path d="M1.22388 8.93115H2.55785" stroke="currentColor" stroke-width="1.33397" stroke-linecap="round" stroke-linejoin="round"/>
<path d="M14.5571 8.93115H15.8911" stroke="currentColor" stroke-width="1.33397" stroke-linecap="round" stroke-linejoin="round"/>
<path d="M3.37036 14.1183L4.31748 13.1711" stroke="currentColor" stroke-width="1.33397" stroke-linecap="round" stroke-linejoin="round"/>
<path d="M12.7971 4.69175L13.7442 3.74463" stroke="currentColor" stroke-width="1.33397" stroke-linecap="round" stroke-linejoin="round"/>
</g>
<defs>
<clipPath id="clip0_481_2498">
<rect width="16" height="16" fill="white" transform="translate(0.557129 0.931152)"/>
</clipPath>
</defs>
</svg>
