<svg width="17" height="17" viewBox="0 0 17 17" fill="none" xmlns="http://www.w3.org/2000/svg">
<path d="M6.61841 2.93115H3.95174C3.59812 2.93115 3.25898 3.07163 3.00893 3.32168C2.75888 3.57173 2.61841 3.91086 2.61841 4.26449V6.93115M6.61841 2.93115H13.2851C13.6387 2.93115 13.9778 3.07163 14.2279 3.32168C14.4779 3.57173 14.6184 3.91086 14.6184 4.26449V6.93115M6.61841 2.93115V14.9312M2.61841 6.93115V13.5978C2.61841 13.9514 2.75888 14.2906 3.00893 14.5406C3.25898 14.7907 3.59812 14.9312 3.95174 14.9312H6.61841M2.61841 6.93115H14.6184M14.6184 6.93115V13.5978C14.6184 13.9514 14.4779 14.2906 14.2279 14.5406C13.9778 14.7907 13.6387 14.9312 13.2851 14.9312H6.61841" stroke="#141413" stroke-width="1.33397" stroke-linecap="round" stroke-linejoin="round"/>
</svg>
