<svg width="16" height="17" viewBox="0 0 16 17" fill="none" xmlns="http://www.w3.org/2000/svg">
<path d="M7.99992 15.285C11.6818 15.285 14.6666 12.3002 14.6666 8.61833C14.6666 4.93643 11.6818 1.95166 7.99992 1.95166C4.31802 1.95166 1.33325 4.93643 1.33325 8.61833C1.33325 12.3002 4.31802 15.285 7.99992 15.285Z" stroke="currentColor" stroke-width="1.33397" stroke-linecap="round" stroke-linejoin="round"/>
<path d="M8 12.6184C10.2091 12.6184 12 10.8275 12 8.61841C12 6.40927 10.2091 4.61841 8 4.61841C5.79086 4.61841 4 6.40927 4 8.61841C4 10.8275 5.79086 12.6184 8 12.6184Z" stroke="currentColor" stroke-width="1.33397" stroke-linecap="round" stroke-linejoin="round"/>
<path d="M8.00008 9.95182C8.73646 9.95182 9.33341 9.35487 9.33341 8.61849C9.33341 7.88211 8.73646 7.28516 8.00008 7.28516C7.2637 7.28516 6.66675 7.88211 6.66675 8.61849C6.66675 9.35487 7.2637 9.95182 8.00008 9.95182Z" stroke="currentColor" stroke-width="1.33397" stroke-linecap="round" stroke-linejoin="round"/>
</svg>
