<svg width="17" height="17" viewBox="0 0 17 17" fill="none" xmlns="http://www.w3.org/2000/svg">
<g clip-path="url(#clip0_481_2541)">
<path d="M9.70744 10.4585V2.95182C9.70744 2.5098 9.53184 2.08587 9.21928 1.77331C8.90672 1.46075 8.4828 1.28516 8.04077 1.28516C7.59874 1.28516 7.17482 1.46075 6.86226 1.77331C6.5497 2.08587 6.3741 2.5098 6.3741 2.95182V10.4585C5.83896 10.8161 5.43299 11.3362 5.21615 11.9422C4.99932 12.5482 4.98312 13.2079 5.16994 13.8238C5.35677 14.4397 5.73671 14.9791 6.25366 15.3625C6.77061 15.7459 7.39716 15.9529 8.04077 15.9529C8.68438 15.9529 9.31093 15.7459 9.82788 15.3625C10.3448 14.9791 10.7248 14.4397 10.9116 13.8238C11.0984 13.2079 11.0822 12.5482 10.8654 11.9422C10.6486 11.3362 10.2426 10.8161 9.70744 10.4585Z" stroke="#141413" stroke-width="1.33397" stroke-linecap="round" stroke-linejoin="round"/>
</g>
<defs>
<clipPath id="clip0_481_2541">
<rect width="16" height="16" fill="white" transform="translate(0.374023 0.618408)"/>
</clipPath>
</defs>
</svg>
