<svg width="17" height="17" viewBox="0 0 17 17" fill="none" xmlns="http://www.w3.org/2000/svg">
<path d="M5.41463 7.95166L8.0813 1.95166C8.61173 1.95166 9.12044 2.16237 9.49551 2.53745C9.87059 2.91252 10.0813 3.42123 10.0813 3.95166V6.61833H13.8546C14.0479 6.61614 14.2393 6.656 14.4157 6.73514C14.592 6.81428 14.749 6.93082 14.8759 7.07667C15.0027 7.22252 15.0963 7.39421 15.1502 7.57983C15.2041 7.76545 15.217 7.96056 15.188 8.15166L14.268 14.1517C14.2198 14.4696 14.0583 14.7594 13.8132 14.9677C13.5682 15.1759 13.2562 15.2886 12.9346 15.285H5.41463M5.41463 7.95166V15.285M5.41463 7.95166H3.41463C3.06101 7.95166 2.72187 8.09214 2.47182 8.34218C2.22177 8.59223 2.0813 8.93137 2.0813 9.28499V13.9517C2.0813 14.3053 2.22177 14.6444 2.47182 14.8945C2.72187 15.1445 3.06101 15.285 3.41463 15.285H5.41463" stroke="#141413" stroke-width="1.33397" stroke-linecap="round" stroke-linejoin="round"/>
</svg>
