<svg width="17" height="17" viewBox="0 0 17 17" fill="none" xmlns="http://www.w3.org/2000/svg">
<g clip-path="url(#clip0_481_2543)">
<path d="M11.3944 9.28499L8.72772 15.285C8.19729 15.285 7.68858 15.0743 7.31351 14.6992C6.93844 14.3241 6.72772 13.8154 6.72772 13.285V10.6183H2.95439C2.76112 10.6205 2.56968 10.5807 2.39334 10.5015C2.217 10.4224 2.05998 10.3058 1.93315 10.16C1.80632 10.0141 1.71272 9.84244 1.65883 9.65682C1.60494 9.4712 1.59205 9.27609 1.62106 9.08499L2.54106 3.08499C2.58927 2.76705 2.75077 2.47725 2.99579 2.26899C3.2408 2.06072 3.55284 1.94802 3.87439 1.95166H11.3944M11.3944 9.28499V1.95166M11.3944 9.28499H13.1744C13.5517 9.29166 13.9183 9.15957 14.2047 8.91378C14.491 8.66799 14.6771 8.32562 14.7277 7.95166V3.28499C14.6771 2.91103 14.491 2.56866 14.2047 2.32287C13.9183 2.07708 13.5517 1.94498 13.1744 1.95166H11.3944" stroke="currentColor" stroke-width="1.33397" stroke-linecap="round" stroke-linejoin="round"/>
</g>
<defs>
<clipPath id="clip0_481_2543">
<rect width="16" height="16" fill="white" transform="translate(0.0610352 0.618408)"/>
</clipPath>
</defs>
</svg>
