<svg width="17" height="17" viewBox="0 0 17 17" fill="none" xmlns="http://www.w3.org/2000/svg">
<g clip-path="url(#clip0_481_2550)">
<path d="M10.7888 3.95166H5.45549C2.87816 3.95166 0.788818 6.041 0.788818 8.61833C0.788818 11.1957 2.87816 13.285 5.45549 13.285H10.7888C13.3661 13.285 15.4555 11.1957 15.4555 8.61833C15.4555 6.041 13.3661 3.95166 10.7888 3.95166Z" stroke="currentColor" stroke-width="1.33397" stroke-linecap="round" stroke-linejoin="round"/>
<path d="M10.7888 10.6184C11.8934 10.6184 12.7888 9.72298 12.7888 8.61841C12.7888 7.51384 11.8934 6.61841 10.7888 6.61841C9.68425 6.61841 8.78882 7.51384 8.78882 8.61841C8.78882 9.72298 9.68425 10.6184 10.7888 10.6184Z" stroke="currentColor" stroke-width="1.33397" stroke-linecap="round" stroke-linejoin="round"/>
</g>
<defs>
<clipPath id="clip0_481_2550">
<rect width="16" height="16" fill="white" transform="translate(0.12207 0.618408)"/>
</clipPath>
</defs>
</svg>
