<svg width="17" height="17" viewBox="0 0 17 17" fill="none" xmlns="http://www.w3.org/2000/svg">
<g clip-path="url(#clip0_481_2547)">
<path d="M11.1018 3.95166H5.76847C3.19114 3.95166 1.10181 6.041 1.10181 8.61833C1.10181 11.1957 3.19114 13.285 5.76847 13.285H11.1018C13.6791 13.285 15.7685 11.1957 15.7685 8.61833C15.7685 6.041 13.6791 3.95166 11.1018 3.95166Z" stroke="#141413" stroke-width="1.33397" stroke-linecap="round" stroke-linejoin="round"/>
<path d="M5.76831 10.6184C6.87288 10.6184 7.76831 9.72298 7.76831 8.61841C7.76831 7.51384 6.87288 6.61841 5.76831 6.61841C4.66374 6.61841 3.76831 7.51384 3.76831 8.61841C3.76831 9.72298 4.66374 10.6184 5.76831 10.6184Z" stroke="#141413" stroke-width="1.33397" stroke-linecap="round" stroke-linejoin="round"/>
</g>
<defs>
<clipPath id="clip0_481_2547">
<rect width="16" height="16" fill="white" transform="translate(0.435059 0.618408)"/>
</clipPath>
</defs>
</svg>
