<svg width="17" height="17" viewBox="0 0 17 17" fill="none" xmlns="http://www.w3.org/2000/svg">
<g clip-path="url(#clip0_481_2553)">
<path d="M10.609 4.81831C10.4868 4.94293 10.4184 5.11048 10.4184 5.28498C10.4184 5.45948 10.4868 5.62703 10.609 5.75165L11.6757 6.81831C11.8003 6.94047 11.9678 7.00889 12.1423 7.00889C12.3168 7.00889 12.4844 6.94047 12.609 6.81831L15.1223 4.30498C15.4575 5.04577 15.559 5.87114 15.4133 6.67108C15.2675 7.47102 14.8815 8.20754 14.3065 8.7825C13.7315 9.35746 12.995 9.74353 12.1951 9.88929C11.3951 10.035 10.5698 9.93354 9.82899 9.59831L5.22232 14.205C4.9571 14.4702 4.59739 14.6192 4.22232 14.6192C3.84725 14.6192 3.48754 14.4702 3.22232 14.205C2.9571 13.9398 2.80811 13.5801 2.80811 13.205C2.80811 12.8299 2.9571 12.4702 3.22232 12.205L7.82899 7.59831C7.49376 6.85752 7.39226 6.03216 7.53801 5.23222C7.68377 4.43228 8.06984 3.69575 8.6448 3.12079C9.21976 2.54584 9.95628 2.15976 10.7562 2.01401C11.5562 1.86826 12.3815 1.96976 13.1223 2.30498L10.6157 4.81165L10.609 4.81831Z" stroke="currentColor" stroke-width="1.33397" stroke-linecap="round" stroke-linejoin="round"/>
</g>
<defs>
<clipPath id="clip0_481_2553">
<rect width="16" height="16" fill="white" transform="translate(0.809082 0.618408)"/>
</clipPath>
</defs>
</svg>
