<svg width="17" height="17" viewBox="0 0 17 17" fill="none" xmlns="http://www.w3.org/2000/svg">
<path d="M2.49609 4.61841H3.82943H14.4961" stroke="#141413" stroke-width="1.33397" stroke-linecap="round" stroke-linejoin="round"/>
<path d="M13.1627 4.61833V13.9517C13.1627 14.3053 13.0222 14.6444 12.7722 14.8945C12.5221 15.1445 12.183 15.285 11.8293 15.285H5.16268C4.80906 15.285 4.46992 15.1445 4.21987 14.8945C3.96982 14.6444 3.82935 14.3053 3.82935 13.9517V4.61833M5.82935 4.61833V3.28499C5.82935 2.93137 5.96982 2.59223 6.21987 2.34218C6.46992 2.09214 6.80906 1.95166 7.16268 1.95166H9.82935C10.183 1.95166 10.5221 2.09214 10.7722 2.34218C11.0222 2.59223 11.1627 2.93137 11.1627 3.28499V4.61833" stroke="#141413" stroke-width="1.33397" stroke-linecap="round" stroke-linejoin="round"/>
</svg>
