<svg width="17" height="17" viewBox="0 0 17 17" fill="none" xmlns="http://www.w3.org/2000/svg">
<g clip-path="url(#clip0_481_2573)">
<path d="M7.79129 3.19163L2.14462 12.6183C2.0282 12.8199 1.9666 13.0485 1.96595 13.2813C1.9653 13.5141 2.02562 13.7431 2.14091 13.9453C2.2562 14.1476 2.42244 14.3161 2.62309 14.4342C2.82375 14.5523 3.05182 14.6157 3.28462 14.6183H14.578C14.8108 14.6157 15.0388 14.5523 15.2395 14.4342C15.4401 14.3161 15.6064 14.1476 15.7217 13.9453C15.837 13.7431 15.8973 13.5141 15.8966 13.2813C15.896 13.0485 15.8344 12.8199 15.718 12.6183L10.0713 3.19163C9.95244 2.9957 9.7851 2.83371 9.58542 2.72129C9.38573 2.60887 9.16045 2.5498 8.93129 2.5498C8.70213 2.5498 8.47684 2.60887 8.27716 2.72129C8.07747 2.83371 7.91014 2.9957 7.79129 3.19163Z" stroke="#141413" stroke-width="1.33397" stroke-linecap="round" stroke-linejoin="round"/>
</g>
<defs>
<clipPath id="clip0_481_2573">
<rect width="16" height="16" fill="white" transform="translate(0.931274 0.618408)"/>
</clipPath>
</defs>
</svg>
