<svg width="16" height="17" viewBox="0 0 16 17" fill="none" xmlns="http://www.w3.org/2000/svg">
<path d="M15.3334 2.30529C14.695 2.75561 13.9882 3.10003 13.2401 3.32529C12.8386 2.86363 12.305 2.53642 11.7114 2.38791C11.1179 2.23939 10.4931 2.27675 9.92147 2.49492C9.34986 2.7131 8.85904 3.10156 8.5154 3.60777C8.17176 4.11398 7.99188 4.71351 8.00008 5.32529V5.99195C6.8285 6.02233 5.6676 5.7625 4.62075 5.23559C3.57391 4.70867 2.67363 3.93104 2.00008 2.97195C2.00008 2.97195 -0.666585 8.97195 5.33341 11.6386C3.96043 12.5706 2.32485 13.0379 0.666748 12.972C6.66675 16.3053 14.0001 12.972 14.0001 5.30529C13.9995 5.11959 13.9816 4.93435 13.9467 4.75195C14.6272 4.08095 15.1073 3.23376 15.3334 2.30529Z" stroke="currentColor" stroke-width="1.33397" stroke-linecap="round" stroke-linejoin="round"/>
</svg>
