<svg width="17" height="17" viewBox="0 0 17 17" fill="none" xmlns="http://www.w3.org/2000/svg">
<g clip-path="url(#clip0_481_2591)">
<path d="M12.3741 12.972C12.3741 13.5024 12.1634 14.0111 11.7883 14.3862C11.4132 14.7613 10.9045 14.972 10.3741 14.972C9.84367 14.972 9.33496 14.7613 8.95989 14.3862C8.58482 14.0111 8.37411 13.5024 8.37411 12.972V8.30534M15.7074 8.30534C15.5333 6.48105 14.6855 4.78717 13.3295 3.55445C11.9735 2.32172 10.2067 1.63867 8.37411 1.63867C6.54153 1.63867 4.77475 2.32172 3.41875 3.55445C2.06275 4.78717 1.21491 6.48105 1.04077 8.30534H15.7074Z" stroke="#141413" stroke-width="1.33397" stroke-linecap="round" stroke-linejoin="round"/>
</g>
<defs>
<clipPath id="clip0_481_2591">
<rect width="16" height="16" fill="white" transform="translate(0.374023 0.30542)"/>
</clipPath>
</defs>
</svg>
