<svg width="17" height="17" viewBox="0 0 17 17" fill="none" xmlns="http://www.w3.org/2000/svg">
<g clip-path="url(#clip0_484_2871)">
<path d="M13.4147 7.63867H4.08138C3.345 7.63867 2.74805 8.23563 2.74805 8.97201V13.6387C2.74805 14.3751 3.345 14.972 4.08138 14.972H13.4147C14.1511 14.972 14.748 14.3751 14.748 13.6387V8.97201C14.748 8.23563 14.1511 7.63867 13.4147 7.63867Z" stroke="currentColor" stroke-width="1.33397" stroke-linecap="round" stroke-linejoin="round"/>
<path d="M5.4148 7.63886V4.97219C5.41397 4.14555 5.72032 3.3481 6.27438 2.73463C6.82844 2.12117 7.59068 1.73546 8.41313 1.65238C9.23558 1.56931 10.0596 1.79479 10.7251 2.28506C11.3907 2.77534 11.8503 3.49542 12.0148 4.30552" stroke="currentColor" stroke-width="1.33397" stroke-linecap="round" stroke-linejoin="round"/>
</g>
<defs>
<clipPath id="clip0_484_2871">
<rect width="16" height="16" fill="white" transform="translate(0.748047 0.30542)"/>
</clipPath>
</defs>
</svg>
