<svg width="17" height="17" viewBox="0 0 17 17" fill="none" xmlns="http://www.w3.org/2000/svg">
<g clip-path="url(#clip0_484_2872)">
<path d="M10.7887 10.9721L8.12199 8.30542L5.45532 10.9721" stroke="currentColor" stroke-width="1.33397" stroke-linecap="round" stroke-linejoin="round"/>
<path d="M8.12207 8.30542V14.3054" stroke="currentColor" stroke-width="1.33397" stroke-linecap="round" stroke-linejoin="round"/>
<path d="M13.7154 12.5655C14.3656 12.211 14.8793 11.6501 15.1753 10.9712C15.4713 10.2924 15.5329 9.53431 15.3502 8.81662C15.1675 8.09892 14.751 7.4625 14.1665 7.00779C13.5819 6.55308 12.8626 6.30598 12.122 6.30549H11.282C11.0803 5.52498 10.7042 4.80038 10.182 4.18615C9.65987 3.57192 9.00527 3.08406 8.26744 2.75923C7.52961 2.4344 6.72774 2.28106 5.92212 2.31075C5.1165 2.34043 4.32809 2.55236 3.61616 2.9306C2.90423 3.30884 2.28732 3.84356 1.81179 4.49455C1.33627 5.14553 1.0145 5.89585 0.870697 6.68909C0.72689 7.48233 0.764781 8.29784 0.981519 9.07433C1.19826 9.85082 1.58821 10.5681 2.12204 11.1722" stroke="currentColor" stroke-width="1.33397" stroke-linecap="round" stroke-linejoin="round"/>
<path d="M10.7887 10.9721L8.12199 8.30542L5.45532 10.9721" stroke="currentColor" stroke-width="1.33397" stroke-linecap="round" stroke-linejoin="round"/>
</g>
<defs>
<clipPath id="clip0_484_2872">
<rect width="16" height="16" fill="white" transform="translate(0.12207 0.30542)"/>
</clipPath>
</defs>
</svg>
