<svg width="17" height="17" viewBox="0 0 17 17" fill="none" xmlns="http://www.w3.org/2000/svg">
<g clip-path="url(#clip0_481_2611)">
<path d="M11.1628 14.3054V12.9721C11.1628 12.2648 10.8819 11.5866 10.3818 11.0865C9.8817 10.5864 9.20342 10.3054 8.49618 10.3054H3.82951C3.12226 10.3054 2.44399 10.5864 1.94389 11.0865C1.44379 11.5866 1.16284 12.2648 1.16284 12.9721V14.3054" stroke="currentColor" stroke-width="1.33397" stroke-linecap="round" stroke-linejoin="round"/>
<path d="M6.16276 7.63875C7.63552 7.63875 8.82943 6.44485 8.82943 4.97209C8.82943 3.49933 7.63552 2.30542 6.16276 2.30542C4.69 2.30542 3.49609 3.49933 3.49609 4.97209C3.49609 6.44485 4.69 7.63875 6.16276 7.63875Z" stroke="currentColor" stroke-width="1.33397" stroke-linecap="round" stroke-linejoin="round"/>
<path d="M11.8293 7.63875L13.1627 8.97209L15.8293 6.30542" stroke="currentColor" stroke-width="1.33397" stroke-linecap="round" stroke-linejoin="round"/>
</g>
<defs>
<clipPath id="clip0_481_2611">
<rect width="16" height="16" fill="white" transform="translate(0.496094 0.30542)"/>
</clipPath>
</defs>
</svg>
