<svg width="17" height="17" viewBox="0 0 17 17" fill="none" xmlns="http://www.w3.org/2000/svg">
<g clip-path="url(#clip0_481_2629)">
<path d="M10.9109 14.3054V12.9721C10.9109 12.2648 10.6299 11.5866 10.1298 11.0865C9.62974 10.5864 8.95147 10.3054 8.24422 10.3054H3.57756C2.87031 10.3054 2.19203 10.5864 1.69194 11.0865C1.19184 11.5866 0.910889 12.2648 0.910889 12.9721V14.3054" stroke="#141413" stroke-width="1.33397" stroke-linecap="round" stroke-linejoin="round"/>
<path d="M5.91093 7.63875C7.38369 7.63875 8.5776 6.44485 8.5776 4.97209C8.5776 3.49933 7.38369 2.30542 5.91093 2.30542C4.43817 2.30542 3.24426 3.49933 3.24426 4.97209C3.24426 6.44485 4.43817 7.63875 5.91093 7.63875Z" stroke="#141413" stroke-width="1.33397" stroke-linecap="round" stroke-linejoin="round"/>
<path d="M12.2443 5.63867L15.5776 8.97201" stroke="#141413" stroke-width="1.33397" stroke-linecap="round" stroke-linejoin="round"/>
<path d="M15.5776 5.63867L12.2443 8.97201" stroke="#141413" stroke-width="1.33397" stroke-linecap="round" stroke-linejoin="round"/>
</g>
<defs>
<clipPath id="clip0_481_2629">
<rect width="16" height="16" fill="white" transform="translate(0.244263 0.30542)"/>
</clipPath>
</defs>
</svg>
