<svg width="17" height="17" viewBox="0 0 17 17" fill="none" xmlns="http://www.w3.org/2000/svg">
<g clip-path="url(#clip0_484_2876)">
<path d="M10.8499 14.3054V12.9721C10.8499 12.2648 10.5689 11.5866 10.0688 11.0865C9.56871 10.5864 8.89043 10.3054 8.18319 10.3054H3.51652C2.80928 10.3054 2.131 10.5864 1.6309 11.0865C1.13081 11.5866 0.849854 12.2648 0.849854 12.9721V14.3054" stroke="currentColor" stroke-width="1.33397" stroke-linecap="round" stroke-linejoin="round"/>
<path d="M5.84977 7.63875C7.32253 7.63875 8.51644 6.44485 8.51644 4.97209C8.51644 3.49933 7.32253 2.30542 5.84977 2.30542C4.37701 2.30542 3.18311 3.49933 3.18311 4.97209C3.18311 6.44485 4.37701 7.63875 5.84977 7.63875Z" stroke="currentColor" stroke-width="1.33397" stroke-linecap="round" stroke-linejoin="round"/>
<path d="M15.5164 7.63867H11.5164" stroke="currentColor" stroke-width="1.33397" stroke-linecap="round" stroke-linejoin="round"/>
</g>
<defs>
<clipPath id="clip0_484_2876">
<rect width="16" height="16" fill="white" transform="translate(0.183105 0.30542)"/>
</clipPath>
</defs>
</svg>
