<svg width="17" height="17" viewBox="0 0 17 17" fill="none" xmlns="http://www.w3.org/2000/svg">
<g clip-path="url(#clip0_484_2874)">
<path d="M11.8905 14.3054V12.9721C11.8905 12.2648 11.6096 11.5866 11.1095 11.0865C10.6094 10.5864 9.93112 10.3054 9.22388 10.3054H3.89054C3.1833 10.3054 2.50502 10.5864 2.00493 11.0865C1.50483 11.5866 1.22388 12.2648 1.22388 12.9721V14.3054" stroke="currentColor" stroke-width="1.33397" stroke-linecap="round" stroke-linejoin="round"/>
<path d="M6.55705 7.63875C8.02981 7.63875 9.22371 6.44485 9.22371 4.97209C9.22371 3.49933 8.02981 2.30542 6.55705 2.30542C5.08429 2.30542 3.89038 3.49933 3.89038 4.97209C3.89038 6.44485 5.08429 7.63875 6.55705 7.63875Z" stroke="currentColor" stroke-width="1.33397" stroke-linecap="round" stroke-linejoin="round"/>
<path d="M15.8904 14.3054V12.9721C15.8899 12.3812 15.6933 11.8073 15.3313 11.3403C14.9693 10.8733 14.4625 10.5398 13.8904 10.3921" stroke="currentColor" stroke-width="1.33397" stroke-linecap="round" stroke-linejoin="round"/>
<path d="M11.2239 2.39209C11.7975 2.53896 12.3059 2.87256 12.669 3.3403C13.032 3.80804 13.2291 4.38331 13.2291 4.97542C13.2291 5.56754 13.032 6.14281 12.669 6.61055C12.3059 7.07829 11.7975 7.41189 11.2239 7.55876" stroke="currentColor" stroke-width="1.33397" stroke-linecap="round" stroke-linejoin="round"/>
</g>
<defs>
<clipPath id="clip0_484_2874">
<rect width="16" height="16" fill="white" transform="translate(0.557129 0.30542)"/>
</clipPath>
</defs>
</svg>
