<svg width="17" height="17" viewBox="0 0 17 17" fill="none" xmlns="http://www.w3.org/2000/svg">
<g clip-path="url(#clip0_481_2637)">
<path d="M11.285 10.972V11.6387C11.285 11.9923 11.1446 12.3314 10.8945 12.5815C10.6445 12.8315 10.3053 12.972 9.9517 12.972H2.61837C2.26475 12.972 1.92561 12.8315 1.67556 12.5815C1.42551 12.3314 1.28503 11.9923 1.28503 11.6387V4.97201C1.28503 4.61838 1.42551 4.27924 1.67556 4.0292C1.92561 3.77915 2.26475 3.63867 2.61837 3.63867H3.9517M7.72503 3.63867H9.9517C10.3053 3.63867 10.6445 3.77915 10.8945 4.0292C11.1446 4.27924 11.285 4.61838 11.285 4.97201V7.19867L11.9517 7.86534L15.9517 4.97201V11.6387" stroke="currentColor" stroke-width="1.33397" stroke-linecap="round" stroke-linejoin="round"/>
<path d="M1.28503 0.972168L15.9517 15.6388" stroke="currentColor" stroke-width="1.33397" stroke-linecap="round" stroke-linejoin="round"/>
</g>
<defs>
<clipPath id="clip0_481_2637">
<rect width="16" height="16" fill="white" transform="translate(0.618408 0.30542)"/>
</clipPath>
</defs>
</svg>
