<svg width="17" height="16" viewBox="0 0 17 16" fill="none" xmlns="http://www.w3.org/2000/svg">
<g clip-path="url(#clip0_481_2656)">
<path d="M8.06095 12.659C10.6383 12.659 12.7276 10.5697 12.7276 7.99235C12.7276 5.41502 10.6383 3.32568 8.06095 3.32568C5.48362 3.32568 3.39429 5.41502 3.39429 7.99235C3.39429 10.5697 5.48362 12.659 8.06095 12.659Z" stroke="currentColor" stroke-width="1.33397" stroke-linecap="round" stroke-linejoin="round"/>
<path d="M8.06104 5.99243V7.99243L9.06104 8.99243" stroke="currentColor" stroke-width="1.33397" stroke-linecap="round" stroke-linejoin="round"/>
<path d="M11.0676 11.5592L10.8343 14.1125C10.8042 14.445 10.6506 14.754 10.4037 14.9787C10.1569 15.2033 9.83472 15.3272 9.50094 15.3259H6.61427C6.28049 15.3272 5.95834 15.2033 5.71148 14.9787C5.46461 14.754 5.31098 14.445 5.28094 14.1125L5.04761 11.5592M5.05427 4.42586L5.28761 1.87252C5.31754 1.54124 5.47023 1.23311 5.71568 1.00863C5.96114 0.784138 6.28164 0.659504 6.61427 0.659191H9.51427C9.84806 0.657836 10.1702 0.781723 10.4171 1.00637C10.6639 1.23102 10.8176 1.54009 10.8476 1.87252L11.0809 4.42586" stroke="currentColor" stroke-width="1.33397" stroke-linecap="round" stroke-linejoin="round"/>
</g>
<defs>
<clipPath id="clip0_481_2656">
<rect width="16" height="16" fill="white" transform="translate(0.0610352 -0.00756836)"/>
</clipPath>
</defs>
</svg>
