<svg width="17" height="16" viewBox="0 0 17 16" fill="none" xmlns="http://www.w3.org/2000/svg">
<g clip-path="url(#clip0_481_2673)">
<path d="M6.51532 3.0525C6.67019 2.89671 6.86116 2.7816 7.07124 2.7174C7.28132 2.65319 7.50401 2.64189 7.71951 2.6845C7.93501 2.7271 8.13665 2.82229 8.30649 2.9616C8.47634 3.10091 8.60914 3.28003 8.69307 3.48303C8.77701 3.68603 8.8095 3.90663 8.78763 4.12521C8.76577 4.34379 8.69024 4.55359 8.56776 4.73594C8.44528 4.9183 8.27964 5.06757 8.08556 5.17048C7.89149 5.27339 7.67499 5.32676 7.45532 5.32583H1.45532M8.51532 12.9325C8.67019 13.0883 8.86116 13.2034 9.07124 13.2676C9.28132 13.3318 9.50401 13.3431 9.71951 13.3005C9.93501 13.2579 10.1366 13.1627 10.3065 13.0234C10.4763 12.8841 10.6091 12.705 10.6931 12.502C10.777 12.299 10.8095 12.0784 10.7876 11.8598C10.7658 11.6412 10.6902 11.4314 10.5678 11.2491C10.4453 11.0667 10.2796 10.9174 10.0856 10.8145C9.89149 10.7116 9.67499 10.6582 9.45532 10.6592H1.45532M11.942 5.14583C12.1359 4.95243 12.3745 4.80978 12.6366 4.73051C12.8988 4.65124 13.1764 4.63779 13.445 4.69136C13.7136 4.74492 13.9648 4.86385 14.1765 5.03761C14.3882 5.21138 14.5538 5.43463 14.6586 5.68763C14.7635 5.94062 14.8044 6.21556 14.7778 6.48813C14.7511 6.7607 14.6577 7.0225 14.5057 7.25037C14.3538 7.47824 14.1481 7.66516 13.9067 7.7946C13.6654 7.92404 13.3959 7.99201 13.122 7.9925H1.45532" stroke="#141413" stroke-width="1.33397" stroke-linecap="round" stroke-linejoin="round"/>
</g>
<defs>
<clipPath id="clip0_481_2673">
<rect width="16" height="16" fill="white" transform="translate(0.12207 -0.00756836)"/>
</clipPath>
</defs>
</svg>
