<svg width="17" height="16" viewBox="0 0 17 16" fill="none" xmlns="http://www.w3.org/2000/svg">
<g clip-path="url(#clip0_481_2690)">
<path d="M15.5838 4.27251C15.5046 3.95612 15.3433 3.66623 15.1162 3.43212C14.8891 3.19801 14.6043 3.02797 14.2904 2.93918C13.1438 2.65918 8.5571 2.65918 8.5571 2.65918C8.5571 2.65918 3.97044 2.65918 2.82377 2.96585C2.50993 3.05464 2.22509 3.22467 1.998 3.45878C1.77091 3.69289 1.60963 3.98279 1.53044 4.29918C1.32058 5.46288 1.21793 6.64339 1.22377 7.82585C1.21629 9.01721 1.31895 10.2067 1.53044 11.3792C1.61774 11.6857 1.78264 11.9646 2.0092 12.1888C2.23576 12.4131 2.51632 12.5751 2.82377 12.6592C3.97044 12.9658 8.5571 12.9658 8.5571 12.9658C8.5571 12.9658 13.1438 12.9658 14.2904 12.6592C14.6043 12.5704 14.8891 12.4004 15.1162 12.1662C15.3433 11.9321 15.5046 11.6422 15.5838 11.3258C15.792 10.1709 15.8947 8.9994 15.8904 7.82585C15.8979 6.63448 15.7953 5.44498 15.5838 4.27251Z" stroke="currentColor" stroke-width="1.33397" stroke-linecap="round" stroke-linejoin="round"/>
<path d="M7.05713 10.0058L10.8905 7.82575L7.05713 5.64575V10.0058Z" stroke="currentColor" stroke-width="1.33397" stroke-linecap="round" stroke-linejoin="round"/>
</g>
<defs>
<clipPath id="clip0_481_2690">
<rect width="16" height="16" fill="white" transform="translate(0.557129 -0.00756836)"/>
</clipPath>
</defs>
</svg>
